<svg width="25" height="19" viewBox="0 0 25 19" fill="none" xmlns="http://www.w3.org/2000/svg">
<path d="M22.0769 0.734131H2.00699C0.913182 0.774131 0.0401399 1.64413 0 2.73413V16.7341C0.0401399 17.8241 0.913182 18.6941 2.00699 18.7341H22.0769C23.1707 18.6941 24.0438 17.8241 24.0839 16.7341V2.73413C24.0654 2.20956 23.8481 1.71147 23.4756 1.34032C23.1032 0.969158 22.6033 0.752536 22.0769 0.734131ZM22.0769 16.7341H2.00699V2.73413H22.0769V16.7341ZM14.0489 14.7341V13.4841C14.0489 11.8241 10.6973 10.9841 9.03147 10.9841C7.36566 10.9841 4.01399 11.8241 4.01399 13.4841V14.7341H14.0489ZM9.03147 4.73413C8.36611 4.73413 7.728 4.99752 7.25752 5.46636C6.78704 5.9352 6.52273 6.57109 6.52273 7.23413C6.52273 7.56244 6.58762 7.88753 6.71369 8.19084C6.83977 8.49415 7.02456 8.76975 7.25752 9.0019C7.728 9.47074 8.36611 9.73413 9.03147 9.73413C9.36092 9.73413 9.68715 9.66947 9.99152 9.54383C10.2959 9.41819 10.5725 9.23404 10.8054 9.0019C11.0384 8.76975 11.2232 8.49415 11.3492 8.19084C11.4753 7.88753 11.5402 7.56244 11.5402 7.23413C11.5402 6.90583 11.4753 6.58074 11.3492 6.27742C11.2232 5.97411 11.0384 5.69851 10.8054 5.46636C10.5725 5.23422 10.2959 5.05007 9.99152 4.92443C9.68715 4.7988 9.36092 4.73413 9.03147 4.73413ZM14.0489 4.73413V5.73413H20.0699V4.73413H14.0489ZM14.0489 6.73413V7.73413H20.0699V6.73413H14.0489ZM14.0489 8.73413V9.73413H18.0629V8.73413H14.0489Z" fill="white"/>
</svg>
