<svg width="861" height="617" viewBox="0 0 861 617" fill="none" xmlns="http://www.w3.org/2000/svg">
<path opacity="0.2" d="M395.391 505.061C387.049 502.85 378.322 500.563 369.279 498.092C360.236 495.621 350.963 493.12 341.707 490.598C323.195 485.554 304.636 480.42 286.35 474.381C279.684 472.082 273.047 469.664 266.438 467.126C167.805 451.195 82.2093 351.534 136.145 250.695C161.942 201.447 218.221 194.415 264.992 183.268C273.844 179.921 282.253 175.504 290.033 170.115C298.044 164.996 305.332 158.824 311.699 151.764C342.522 118.2 348.369 72.4682 376.508 34.9476C404.647 -2.573 455.063 2.11708 497.276 0.943489C568.798 -1.39942 630.941 51.365 646.794 120.718C649.162 129.603 650.921 138.577 652.482 147.655C655.611 165.8 657.966 184.322 662.895 203.21C664.175 212.373 673.76 220.058 682.734 223.131C708.339 230.762 734.118 231.935 761.088 236.625C800.95 243.662 834.953 267.113 850.197 303.46C862.508 336.29 863.682 373.226 854.007 406.642C850.806 417.764 846.352 428.488 840.731 438.606C836.754 446.516 831.752 453.868 825.855 460.473C810.13 475.358 794.302 489.454 778.628 503.576C770.787 510.64 762.963 517.723 755.157 524.824C747.548 530.338 740.165 536.487 732.864 542.825C663.778 624.728 523.077 632.935 444.386 560.838C436.46 551.176 430.175 540.278 425.78 528.579C423.433 525.063 419.916 522.716 416.818 520.002C410.75 515.457 403.64 510.515 395.391 505.061Z" fill="#F5733F"/>
<path opacity="0.2" d="M276.428 511.122C268.085 508.912 259.358 506.624 250.315 504.153C241.273 501.682 231.999 499.181 222.743 496.659C204.231 491.615 185.672 486.481 167.386 480.443C160.721 478.144 154.083 475.725 147.475 473.188C48.8415 457.257 -36.7546 357.596 17.1814 256.757C42.978 207.509 99.2569 200.476 146.028 189.329C154.88 185.982 163.289 181.565 171.069 176.176C179.081 171.058 186.368 164.886 192.735 157.826C223.558 124.261 229.405 78.5298 257.544 41.0091C285.684 3.48852 336.099 8.1786 378.312 7.00501C449.834 4.66211 511.977 57.4265 527.83 126.779C530.199 135.664 531.957 144.639 533.519 153.716C536.647 171.862 539.002 190.383 543.931 209.272C545.211 218.434 554.796 226.12 563.77 229.193C589.375 236.823 615.154 237.997 642.125 242.687C681.987 249.724 715.99 273.174 731.233 309.521C743.544 342.352 744.718 379.288 735.044 412.703C731.842 423.826 727.388 434.549 721.768 444.667C717.79 452.578 712.788 459.93 706.891 466.534C691.166 481.42 675.338 495.516 659.664 509.637C651.823 516.701 643.999 523.784 636.193 530.885C628.584 536.399 621.201 542.549 613.9 548.886C544.814 630.79 404.113 638.996 325.422 566.9C317.496 557.237 311.211 546.34 306.816 534.641C304.469 531.124 300.952 528.777 297.854 526.063C291.786 521.518 284.677 516.576 276.428 511.122Z" fill="#F5733F"/>
</svg>
