<svg width="22" height="19" viewBox="0 0 22 19" fill="none" xmlns="http://www.w3.org/2000/svg">
<path d="M18.812 0.0241699H2.75602C2.22373 0.0241699 1.71324 0.234884 1.33686 0.609956C0.960474 0.985029 0.749023 1.49374 0.749023 2.02417V14.0242C0.749023 14.5546 0.960474 15.0633 1.33686 15.4384C1.71324 15.8135 2.22373 16.0242 2.75602 16.0242H11.8778C11.8176 15.6942 11.7875 15.3642 11.7875 15.0242C11.7875 11.7142 14.4869 9.02417 17.8085 9.02417C18.8722 9.02417 19.9058 9.30417 20.819 9.83417V2.02417C20.819 0.91417 19.9258 0.0241699 18.812 0.0241699ZM18.812 7.02417H2.75602V4.02417H18.812V7.02417ZM16.5541 18.0242L13.7945 15.0242L14.9585 13.8642L16.5541 15.4542L20.1566 11.8642L21.3207 13.2742L16.5541 18.0242Z" fill="white"/>
</svg>
