<svg width="50" height="50" viewBox="0 0 50 50" fill="none" xmlns="http://www.w3.org/2000/svg">
<path d="M25 0C21.717 0 18.4661 0.646644 15.4329 1.90301C12.3998 3.15938 9.6438 5.00087 7.32233 7.32233C2.63392 12.0107 0 18.3696 0 25C0 31.6304 2.63392 37.9893 7.32233 42.6777C9.6438 44.9991 12.3998 46.8406 15.4329 48.097C18.4661 49.3534 21.717 50 25 50C31.6304 50 37.9893 47.3661 42.6777 42.6777C47.3661 37.9893 50 31.6304 50 25C50 21.717 49.3534 18.4661 48.097 15.4329C46.8406 12.3998 44.9991 9.6438 42.6777 7.32233C40.3562 5.00087 37.6002 3.15938 34.5671 1.90301C31.5339 0.646644 28.283 0 25 0ZM12.675 40.7C13.75 38.45 20.3 36.25 25 36.25C29.7 36.25 36.25 38.45 37.325 40.7C33.8235 43.4901 29.4772 45.0064 25 45C20.35 45 16.075 43.4 12.675 40.7ZM40.9 37.075C37.325 32.725 28.65 31.25 25 31.25C21.35 31.25 12.675 32.725 9.1 37.075C6.44046 33.6116 4.99916 29.3668 5 25C5 13.975 13.975 5 25 5C36.025 5 45 13.975 45 25C45 29.55 43.45 33.75 40.9 37.075ZM25 10C20.15 10 16.25 13.9 16.25 18.75C16.25 23.6 20.15 27.5 25 27.5C29.85 27.5 33.75 23.6 33.75 18.75C33.75 13.9 29.85 10 25 10ZM25 22.5C24.0054 22.5 23.0516 22.1049 22.3483 21.4017C21.6451 20.6984 21.25 19.7446 21.25 18.75C21.25 17.7554 21.6451 16.8016 22.3483 16.0983C23.0516 15.3951 24.0054 15 25 15C25.9946 15 26.9484 15.3951 27.6517 16.0983C28.3549 16.8016 28.75 17.7554 28.75 18.75C28.75 19.7446 28.3549 20.6984 27.6517 21.4017C26.9484 22.1049 25.9946 22.5 25 22.5Z" fill="#13266A"/>
</svg>
