<svg width="335" height="553" viewBox="0 0 335 553" fill="none" xmlns="http://www.w3.org/2000/svg">
<g clip-path="url(#clip0)">
<path d="M5.66526 541.266H53.3663V492.737H5.66526C4.1881 492.699 2.78454 492.09 1.75354 491.04C0.722541 489.991 0.145594 488.584 0.145594 487.119C0.145594 485.654 0.722541 484.247 1.75354 483.197C2.78454 482.148 4.1881 481.539 5.66526 481.5H299.186C308.682 481.5 317.79 485.24 324.505 491.898C331.22 498.555 334.992 507.585 334.992 517C334.992 526.415 331.22 535.445 324.505 542.102C317.79 548.76 308.682 552.5 299.186 552.5H5.66526C4.16274 552.5 2.72176 551.908 1.65932 550.855C0.596874 549.802 0 548.373 0 546.883C0 545.394 0.596874 543.965 1.65932 542.912C2.72176 541.858 4.16274 541.266 5.66526 541.266Z" fill="#FDB740"/>
<path d="M309.925 517C309.923 507.585 306.151 498.556 299.436 491.899C292.721 485.242 283.614 481.501 274.118 481.5H299.194C308.69 481.5 317.798 485.24 324.513 491.898C331.228 498.555 335 507.585 335 517C335 526.415 331.228 535.445 324.513 542.102C317.798 548.76 308.69 552.5 299.194 552.5H274.118C283.615 552.5 292.722 548.76 299.437 542.102C306.152 535.445 309.925 526.415 309.925 517Z" fill="#F5733F"/>
<g style="mix-blend-mode:multiply">
<g style="mix-blend-mode:multiply">
<path d="M1.37571e-06 546.883C-0.000517355 546.145 0.145665 545.415 0.430187 544.733C0.714709 544.051 1.13199 543.432 1.65816 542.91C2.18433 542.389 2.80907 541.975 3.49665 541.693C4.18422 541.411 4.92114 541.266 5.66526 541.266H53.3663V492.737H5.66526C4.18811 492.699 2.78454 492.09 1.75354 491.04C0.722543 489.991 0.145596 488.584 0.145596 487.119C0.145596 485.654 0.722543 484.247 1.75354 483.197C2.78454 482.148 4.18811 481.539 5.66526 481.5H238.647C255.907 481.5 269.897 497.396 269.897 517C269.897 536.604 255.907 552.5 238.647 552.5H5.66526C4.92114 552.501 4.18422 552.356 3.49665 552.073C2.80907 551.791 2.18433 551.378 1.65816 550.856C1.13199 550.334 0.714709 549.715 0.430187 549.033C0.145665 548.352 -0.000517355 547.621 1.37571e-06 546.883Z" fill="#F7941D"/>
</g>
<g style="mix-blend-mode:multiply">
<path d="M1.37571e-06 546.883C-0.000517355 546.145 0.145665 545.415 0.430187 544.733C0.714709 544.051 1.13199 543.432 1.65816 542.91C2.18433 542.389 2.80907 541.975 3.49665 541.693C4.18422 541.411 4.92114 541.266 5.66526 541.266H53.3663V492.737H5.66526C4.18811 492.699 2.78454 492.09 1.75354 491.04C0.722543 489.991 0.145596 488.584 0.145596 487.119C0.145596 485.654 0.722543 484.247 1.75354 483.197C2.78454 482.148 4.18811 481.539 5.66526 481.5H238.647C255.907 481.5 269.897 497.396 269.897 517C269.897 536.604 255.907 552.5 238.647 552.5H5.66526C4.92114 552.501 4.18422 552.356 3.49665 552.073C2.80907 551.791 2.18433 551.378 1.65816 550.856C1.13199 550.334 0.714709 549.715 0.430187 549.033C0.145665 548.352 -0.000517355 547.621 1.37571e-06 546.883Z" fill="#433072"/>
</g>
</g>
<path d="M13.8081 489.847C14.4512 489.8 15.0863 489.749 15.7412 489.749H226.019C229.656 489.706 233.266 490.379 236.639 491.729C240.013 493.079 243.082 495.08 245.67 497.615C248.257 500.15 250.312 503.169 251.714 506.497C253.116 509.825 253.838 513.395 253.838 517.002C253.838 520.609 253.116 524.179 251.714 527.507C250.312 530.835 248.257 533.854 245.67 536.389C243.082 538.924 240.013 540.925 236.639 542.275C233.266 543.625 229.656 544.298 226.019 544.255H15.7531C15.0982 544.255 14.463 544.2 13.8199 544.157L13.8081 489.847Z" fill="white"/>
<path d="M217.174 528.269H34.5283V531.574H217.174V528.269Z" fill="#E6E7E8"/>
<path d="M215.138 502.125H32.4961V505.434H215.138V502.125Z" fill="#E6E7E8"/>
<path d="M195.444 515.987H105.798V518.752H195.444V515.987Z" fill="#E6E7E8"/>
<path d="M78.0591 531.875L87.204 520.321L97.0156 531.875V502.125H78.0591V531.875Z" fill="#F7941D"/>
</g>
<g clip-path="url(#clip1)">
<path opacity="0.2" d="M284.921 473.215H245.336V432.205H284.921C286.167 432.205 287.363 431.705 288.245 430.814C289.127 429.924 289.622 428.717 289.622 427.458C289.622 426.199 289.127 424.992 288.245 424.102C287.363 423.212 286.167 422.711 284.921 422.711H41.3423C33.4617 422.711 25.9039 425.872 20.3314 431.498C14.759 437.124 11.6284 444.755 11.6284 452.711C11.6284 460.668 14.759 468.299 20.3314 473.925C25.9039 479.551 33.4617 482.711 41.3423 482.711H284.921C286.146 482.679 287.311 482.164 288.167 481.277C289.022 480.39 289.501 479.201 289.501 477.963C289.501 476.725 289.022 475.536 288.167 474.649C287.311 473.762 286.146 473.248 284.921 473.215Z" fill="#2861A3"/>
<path d="M32.43 452.711C32.43 448.771 33.1987 444.87 34.6922 441.23C36.1856 437.59 38.3746 434.283 41.1342 431.497C43.8937 428.711 47.1697 426.502 50.7752 424.994C54.3806 423.487 58.2448 422.711 62.1472 422.711H41.335C33.4544 422.711 25.8965 425.872 20.3241 431.498C14.7517 437.124 11.6211 444.755 11.6211 452.711C11.6211 460.668 14.7517 468.299 20.3241 473.925C25.8965 479.551 33.4544 482.711 41.335 482.711H62.1472C54.2663 482.711 46.7081 479.551 41.1351 473.925C35.5622 468.299 32.4309 460.668 32.43 452.711Z" fill="#2861A3"/>
<path d="M289.621 477.962C289.621 476.703 289.126 475.495 288.244 474.605C287.363 473.715 286.167 473.215 284.92 473.215H245.335V432.205H284.92C286.167 432.205 287.363 431.705 288.244 430.814C289.126 429.924 289.621 428.717 289.621 427.458C289.621 426.199 289.126 424.992 288.244 424.102C287.363 423.212 286.167 422.711 284.92 422.711H91.5797C77.2597 422.711 65.6406 436.141 65.6406 452.711C65.6406 469.282 77.2532 482.711 91.5732 482.711H284.92C285.538 482.711 286.149 482.589 286.72 482.35C287.29 482.111 287.809 481.761 288.245 481.32C288.682 480.879 289.028 480.355 289.264 479.779C289.5 479.203 289.622 478.585 289.621 477.962Z" fill="#F7941D"/>
<path d="M289.621 477.962C289.621 476.703 289.126 475.495 288.244 474.605C287.363 473.715 286.167 473.215 284.92 473.215H245.335V432.205H284.92C286.167 432.205 287.363 431.705 288.244 430.814C289.126 429.924 289.621 428.717 289.621 427.458C289.621 426.199 289.126 424.992 288.244 424.102C287.363 423.212 286.167 422.711 284.92 422.711H91.5797C77.2597 422.711 65.6406 436.141 65.6406 452.711C65.6406 469.282 77.2532 482.711 91.5732 482.711H284.92C285.538 482.711 286.149 482.589 286.72 482.35C287.29 482.111 287.809 481.761 288.245 481.32C288.682 480.879 289.028 480.355 289.264 479.779C289.5 479.203 289.622 478.585 289.621 477.962Z" fill="#2861A3"/>
<path d="M278.153 429.762C277.619 429.722 277.092 429.679 276.552 429.679H102.053C96.0504 429.752 90.3182 432.21 86.099 436.521C81.8798 440.833 79.5137 446.649 79.5137 452.71C79.5137 458.77 81.8798 464.587 86.099 468.898C90.3182 473.209 96.0504 475.668 102.053 475.74H276.552C277.092 475.74 277.619 475.697 278.153 475.658V429.762Z" fill="white"/>
<path d="M260.971 462.234H109.403V465.031H260.971V462.234Z" fill="#E6E7E8"/>
<path d="M262.657 440.141H111.089V442.937H262.657V440.141Z" fill="#E6E7E8"/>
<path d="M201.828 451.852H127.436V454.189H201.828V451.852Z" fill="#E6E7E8"/>
<path d="M224.847 465.282L217.255 455.514L209.113 465.282V440.141H224.847V465.282Z" fill="#FACE47"/>
</g>
<g clip-path="url(#clip2)">
<path style="mix-blend-mode:multiply" d="M171.403 426C206.685 426 235.287 424.408 235.287 422.443C235.287 420.479 206.685 418.887 171.403 418.887C136.121 418.887 107.52 420.479 107.52 422.443C107.52 424.408 136.121 426 171.403 426Z" fill="url(#paint0_linear)"/>
<path d="M185.814 126.726C196.19 125.882 212.861 126.726 212.861 126.726L222.074 223.321C222.074 223.321 196.852 226.801 180.623 225.85C164.395 224.9 145.242 221.803 145.242 221.803L158.406 132.677C158.406 132.677 172.181 127.84 185.814 126.726Z" fill="url(#paint1_linear)"/>
<path d="M235.284 240.963C234.161 242.686 226.31 252.9 216.502 255.828C206.695 258.755 209.148 243.482 209.148 243.482L235.284 240.963Z" fill="url(#paint2_linear)"/>
<path d="M209.981 391.24C209.981 391.24 210.92 403.688 210.743 403.954C210.565 404.221 217.609 403.954 217.609 403.954L218.013 391.683L209.981 391.24Z" fill="url(#paint3_linear)"/>
<path d="M230.89 420.578C230.89 421.731 223.892 423.259 217.406 423.509C211.272 423.747 204.454 422.514 203.977 421.756C203.818 421.509 203.793 420.537 203.857 419.188C204.031 415.529 204.864 409.08 205.613 406.452C206.637 402.84 208.273 399.964 208.783 399.814C209.293 399.663 211.011 400.754 213.748 400.754C216.347 400.754 218.507 399.024 219.188 399.361C219.743 399.637 224.85 405.139 227.204 409.501C228.608 412.157 229.691 414.97 230.432 417.879C230.678 418.761 230.832 419.665 230.89 420.578Z" fill="url(#paint4_linear)"/>
<path d="M230.89 420.578C230.89 421.731 223.892 423.259 217.406 423.509C211.272 423.747 204.454 422.514 203.977 421.756C203.818 421.509 203.793 420.537 203.857 419.189C209.132 419.737 219.853 420.338 230.432 417.879C230.678 418.761 230.832 419.665 230.89 420.578Z" fill="url(#paint5_linear)"/>
<path d="M146.559 387.324L145.303 401.367H137.045L137.675 385.481L146.559 387.324Z" fill="url(#paint6_linear)"/>
<path d="M150.82 418.479C150.82 420.165 150.727 421.436 150.626 421.715C150.391 422.357 108.682 422.964 107.426 422.251C106.78 421.882 106.916 420.505 107.52 418.884C108.149 417.217 109.058 415.67 110.209 414.306C112.543 411.629 134.853 398.523 136.3 398.629C137.555 398.719 138.998 399.827 141.174 399.897C144.015 399.987 146.291 398.552 147.008 399.047C147.724 399.541 149.79 406.782 150.391 410.827C150.714 413.365 150.858 415.922 150.82 418.479Z" fill="url(#paint7_linear)"/>
<path d="M150.82 418.479C150.82 420.164 150.727 421.436 150.626 421.715C150.391 422.357 108.682 422.964 107.426 422.251C106.78 421.882 106.916 420.505 107.52 418.884C114.063 419.198 136.174 420.084 150.82 418.479Z" fill="url(#paint8_linear)"/>
<path d="M133.995 251.314C136.506 255.182 143.928 259.288 148.845 260.597C153.761 261.907 151.133 247.944 151.133 247.944L133.995 251.314Z" fill="url(#paint9_linear)"/>
<path d="M219.443 393.869C217.563 394.422 215.616 394.722 213.655 394.761C212.398 394.77 211.144 394.654 209.91 394.415C209.016 394.259 208.139 394.017 207.292 393.692C207.292 393.692 202.556 338.989 197.714 310.739C192.871 282.489 186.315 258.306 185.508 257.134C184.701 255.962 181.918 255.975 180.21 256.868C179.435 257.275 176.785 265.281 173.379 277.366V277.44C169.305 291.929 164.14 312.235 159.843 332.322C151.944 369.236 149.79 391.705 149.79 391.705C147.415 392.618 144.924 393.201 142.388 393.439C140.731 393.524 139.07 393.39 137.449 393.041C136.465 392.848 135.495 392.594 134.543 392.28C134.543 392.28 135.906 345.319 137.346 311.763C138.785 278.207 147.134 220.05 147.134 220.05C147.134 220.05 158.539 221.886 170.245 222.692C174.541 222.984 178.877 223.138 182.702 223.013C188.42 222.82 195.37 222.181 201.646 221.482C211.008 220.438 218.868 219.267 218.868 219.267C218.868 219.267 220.16 231.272 221.409 250.817C222.303 264.831 223.188 282.73 223.562 302.859C224.469 351.033 219.443 393.869 219.443 393.869Z" fill="url(#paint10_linear)"/>
<path style="mix-blend-mode:multiply" d="M170.245 222.676C168.879 229.173 164.182 251.199 162.955 251.908C161.519 252.743 151.766 257.526 149.79 261.262C147.954 264.741 138.705 377.611 137.449 393.025C136.465 392.832 135.495 392.578 134.543 392.264C134.543 392.264 135.906 345.319 137.346 311.763C138.785 278.207 147.134 220.05 147.134 220.05C147.134 220.05 158.539 221.87 170.245 222.676Z" fill="url(#paint11_linear)"/>
<path style="mix-blend-mode:multiply" d="M221.409 250.798C219.165 250.496 204.567 248.477 204.122 247.267C203.763 246.281 202.33 229.612 201.646 221.462C211.007 220.419 218.868 219.248 218.868 219.248C218.868 219.248 220.153 231.253 221.409 250.798Z" fill="url(#paint12_linear)"/>
<path d="M184.856 256.73H184.788C184.565 256.701 179.3 255.995 177.776 252.236C176.32 248.679 175.61 228.162 175.581 227.301C175.579 227.23 175.591 227.158 175.617 227.091C175.643 227.024 175.683 226.963 175.733 226.912C175.783 226.86 175.843 226.819 175.91 226.792C175.976 226.764 176.048 226.749 176.12 226.749H186.292C186.365 226.75 186.437 226.765 186.504 226.794C186.571 226.822 186.632 226.864 186.683 226.916C186.733 226.969 186.772 227.031 186.797 227.099C186.822 227.166 186.832 227.239 186.828 227.311L185.395 256.226C185.387 256.363 185.327 256.493 185.227 256.587C185.127 256.682 184.994 256.735 184.856 256.736V256.73ZM176.678 227.812C176.804 231.172 177.515 248.753 178.774 251.828C179.8 254.338 183.025 255.272 184.349 255.558L185.727 227.812H176.678Z" fill="url(#paint13_linear)"/>
<path d="M145.242 225.507C145.242 225.507 156.97 229.073 181.624 229.253C206.278 229.433 220.876 225.507 220.876 225.507L220.16 219.26C220.16 219.26 193.83 221.828 182.221 221.828C170.612 221.828 146.2 219.26 146.2 219.26L145.242 225.507Z" fill="url(#paint14_linear)"/>
<path d="M174.922 220.891C173.676 221.787 174.383 229.121 174.922 229.924C175.462 230.726 186.677 230.672 187.668 229.924C188.659 229.176 188.836 221.315 187.668 220.891C186.499 220.467 175.826 220.243 174.922 220.891Z" fill="url(#paint15_linear)"/>
<path d="M197.362 220.483L197.72 229.538L200.651 229.246L200.174 220.483H197.362Z" fill="url(#paint16_linear)"/>
<path d="M167.481 229.625L167.643 220.792L164.702 220.689L164.676 229.465L167.481 229.625Z" fill="url(#paint17_linear)"/>
<path style="mix-blend-mode:multiply" d="M209.91 394.415C209.016 394.259 208.139 394.017 207.292 393.692C207.292 393.692 202.556 338.99 197.714 310.739C192.872 282.489 186.315 258.306 185.508 257.134C184.701 255.962 181.918 255.975 180.21 256.868C179.436 257.275 176.785 265.281 173.379 277.366C173.786 275.469 176.259 252.04 180.659 251.305C185.13 250.557 193.766 247.318 194.305 248.39C194.844 249.462 204.358 302.901 206.869 332.316C208.935 356.451 209.7 384.946 209.91 394.415Z" fill="url(#paint18_linear)"/>
<path d="M189.94 132.831C189.94 132.831 191.893 143.809 193.352 152.591C194.721 160.827 197.368 185.749 197.368 185.749L189.943 204.241L180.985 186.641C180.985 186.641 184.019 162.545 184.62 151.121C185.104 141.802 185.446 133.383 185.446 133.383C185.446 133.383 186.876 130.173 188.132 130.35C189.388 130.526 189.94 132.831 189.94 132.831Z" fill="url(#paint19_linear)"/>
<path style="mix-blend-mode:multiply" d="M183.122 121.802C188.009 121.802 190.66 123.872 191.499 124.646C192.339 125.419 195.567 129.14 195.748 130.103C195.928 131.066 192.519 138.949 191.49 138.711C190.46 138.474 187.435 134.282 186.715 134.346C185.995 134.41 183.164 139.642 182.044 139.642C180.923 139.642 178.383 137.809 175.971 135.357C173.695 133.043 173.008 131.505 173.008 130.693C173.008 129.881 176.943 124.158 177.886 123.397C178.828 122.636 180.775 121.805 183.122 121.802Z" fill="url(#paint20_linear)"/>
<path d="M184.378 119.006C189.265 119.006 191.916 121.076 192.755 121.85C193.594 122.623 196.823 126.344 197.003 127.307C197.184 128.27 193.775 136.153 192.742 135.916C191.709 135.678 188.691 131.499 187.971 131.56C187.251 131.621 184.436 136.853 183.3 136.853C182.163 136.853 179.639 135.023 177.227 132.571C174.948 130.257 174.264 128.719 174.264 127.907C174.264 127.095 178.199 121.372 179.142 120.611C180.084 119.85 182.031 119.009 184.378 119.006Z" fill="url(#paint21_linear)"/>
<path d="M289.151 124.029C288.889 124.35 288.569 124.671 288.227 124.992C287.288 125.92 286.223 126.918 285.967 127.644C285.645 128.658 280.25 128.773 280.157 128.802C280.063 128.831 279.44 127.197 279.44 127.197C279.44 127.197 280.46 126.697 281.784 125.984C282.72 125.48 283.811 124.867 284.792 124.248C287.172 122.752 288.666 121.185 289.331 121.275C289.996 121.365 290.193 122.79 289.151 124.029Z" fill="url(#paint22_linear)"/>
<path style="mix-blend-mode:multiply" d="M288.227 125.002C287.288 125.93 286.223 126.928 285.967 127.653C285.645 128.668 280.25 128.783 280.157 128.812C280.063 128.841 279.44 127.207 279.44 127.207C279.44 127.207 280.46 126.706 281.784 125.994C283.908 125.724 286.616 125.358 288.227 125.002Z" fill="url(#paint23_linear)"/>
<path d="M298.877 124.257C298.771 124.578 298.232 125.294 297.46 126.183C295.562 128.347 292.276 131.499 290.652 132.231C288.36 133.258 278.307 134.821 277.768 134.953C277.29 135.075 273.971 140.188 273.21 141.372C273.113 141.53 273.055 141.616 273.055 141.616L267.702 135.309C267.702 135.309 272.338 130.513 273.968 129.319C276.087 127.822 278.596 126.967 281.193 126.857C284.247 126.796 288.105 126.803 291.201 125.731C294.296 124.659 296.408 121.744 297.602 121.449C298.797 121.153 299.236 123.15 298.877 124.257Z" fill="url(#paint24_linear)"/>
<path style="mix-blend-mode:multiply" d="M297.466 126.174C295.568 128.337 292.282 131.489 290.658 132.221C288.366 133.248 278.313 134.811 277.774 134.943C277.296 135.065 273.978 140.178 273.216 141.363L272.932 137.851C272.932 137.851 276.641 132.975 278.077 132.619C279.514 132.263 287.956 131.422 291.065 130.478C292.869 129.926 295.529 127.84 297.466 126.174Z" fill="url(#paint25_linear)"/>
<path d="M189.582 126.934C188.984 127.403 188.288 127.73 187.545 127.893C186.802 128.056 186.032 128.05 185.292 127.875C182.464 127.175 180.624 124.793 180.624 124.793L180.653 123.188L180.888 110.009C180.888 110.009 184.155 113.482 186.292 114.56C188.429 115.639 189.098 114.949 189.098 114.949L189.353 121.253L189.582 126.934Z" fill="url(#paint26_linear)"/>
<path style="mix-blend-mode:multiply" d="M189.352 121.253C186.538 122.229 183.618 122.876 180.652 123.179L180.804 114.872L180.888 109.999C180.888 109.999 184.155 113.482 186.292 114.56C188.429 115.639 189.097 114.949 189.097 114.949L189.21 117.757L189.352 121.253Z" fill="url(#paint27_linear)"/>
<path style="mix-blend-mode:multiply" d="M189.211 117.757C185.815 117.436 182.754 115.979 180.817 114.868L180.901 109.996C180.901 109.996 184.155 113.482 186.292 114.56C188.43 115.639 189.098 114.948 189.098 114.948L189.211 117.757Z" fill="url(#paint28_linear)"/>
<path d="M275.434 140.255L271.363 145.902L271.085 146.287L270.382 145.725L267.444 143.366L262.375 139.315L266.863 133.576C268.773 133.88 270.577 134.652 272.112 135.823C272.41 136.06 272.694 136.314 272.964 136.583C274.03 137.627 274.871 138.877 275.434 140.255Z" fill="url(#paint29_linear)"/>
<path style="mix-blend-mode:multiply" d="M275.434 140.255L271.363 145.902C271.04 145.847 270.717 145.789 270.394 145.725L267.444 143.366C267.673 143.144 267.929 142.951 268.206 142.791C271.563 140.753 272.632 137.976 272.964 136.596C274.029 137.636 274.869 138.881 275.434 140.255Z" fill="url(#paint30_linear)"/>
<path d="M199.76 83.5623C199.76 83.5623 202.569 88.024 202.746 93.468C202.924 98.912 200.516 104.266 198.759 104.536C197.003 104.805 189.672 87.9887 191.228 85.4176C192.784 82.8465 199.76 83.5623 199.76 83.5623Z" fill="url(#paint31_linear)"/>
<path d="M199.247 102.035C199.247 109.829 195.964 115.966 191.635 116.919C191.099 117.038 190.548 117.075 190.001 117.029C184.077 116.554 178.857 108.818 177.24 101.679C175.623 94.5401 177.514 88.1749 183.719 86.1495C191.309 83.6746 195.735 87.8186 197.807 93.4616C198.775 96.217 199.262 99.1166 199.247 102.035Z" fill="url(#paint32_linear)"/>
<path style="mix-blend-mode:multiply" d="M197.807 93.4615C196.056 93.7397 194.271 93.7397 192.52 93.4615C189.766 92.9929 186.418 91.5035 186.418 91.5035C186.418 91.5035 186.712 96.7549 185.398 99.4255C184.084 102.096 182.764 103.643 182.764 105.903C182.764 108.163 186.599 116.329 191.619 116.916H191.638C191.102 117.035 190.552 117.071 190.005 117.025C184.081 116.55 178.861 108.814 177.243 101.676C175.626 94.5368 177.518 88.1716 183.723 86.1462C191.309 83.6746 195.735 87.8185 197.807 93.4615Z" fill="url(#paint33_linear)"/>
<path d="M189.097 102.706C189.72 102.706 190.224 102.057 190.224 101.255C190.224 100.454 189.72 99.8044 189.097 99.8044C188.475 99.8044 187.971 100.454 187.971 101.255C187.971 102.057 188.475 102.706 189.097 102.706Z" fill="url(#paint34_linear)"/>
<path d="M197.63 102.327C198.252 102.327 198.756 101.678 198.756 100.876C198.756 100.075 198.252 99.4255 197.63 99.4255C197.007 99.4255 196.503 100.075 196.503 100.876C196.503 101.678 197.007 102.327 197.63 102.327Z" fill="url(#paint35_linear)"/>
<path d="M194.938 102.706C194.938 102.706 196.587 105.338 196.503 106.006C196.42 106.673 194.444 107.791 194.444 107.791C194.444 107.791 196.106 106.231 195.88 105.544C195.654 104.857 194.938 102.706 194.938 102.706Z" fill="url(#paint36_linear)"/>
<path d="M189.294 108.503C189.294 108.503 190.812 110.208 193.133 110.192C195.454 110.176 196.345 109.158 196.345 109.158C196.03 109.735 195.564 110.216 194.995 110.549C194.426 110.882 193.777 111.055 193.117 111.049C190.815 111.042 189.294 108.503 189.294 108.503Z" fill="white"/>
<path d="M191.018 97.2461C190.736 96.9263 190.383 96.6765 189.987 96.5165C189.591 96.3566 189.162 96.2909 188.736 96.3249C187.122 96.4372 185.814 98.4049 185.814 98.4049C185.814 98.4049 187.316 97.0535 188.736 96.7999C189.847 96.5752 191.018 97.2461 191.018 97.2461Z" fill="url(#paint37_linear)"/>
<path d="M194.954 97.1723C195.19 96.8263 195.498 96.5345 195.857 96.3164C196.216 96.0983 196.618 95.959 197.036 95.9076C198.572 95.7985 199.76 97.5125 199.76 97.5125C199.76 97.5125 198.572 96.3602 197.113 96.3538C196.1 96.357 194.954 97.1723 194.954 97.1723Z" fill="url(#paint38_linear)"/>
<path d="M200.144 91.9496C194.579 94.3603 185.424 90.3447 185.424 90.3447C185.424 90.3447 186.231 92.3091 185.424 94.9862C184.617 97.6632 182.283 98.3758 181.204 99.801C180.126 101.226 179.858 105.258 179.59 105.258C179.322 105.258 178.622 102.581 177.931 102.135C177.24 101.688 179.429 108.304 180.901 110.31C182.373 112.316 181.924 112.878 180.665 112.933C179.406 112.987 170.884 106.596 167.471 100.44C166.101 97.9225 165.385 95.1043 165.389 92.2417C165.389 89.0318 166.319 86.4928 167.471 85.8926C168.748 85.2548 170.212 85.0898 171.6 85.4271C171.6 85.4271 175.151 80.9846 176.691 80.6123C178.231 80.2399 178.693 81.0585 178.693 81.0585C178.693 81.0585 184.052 73.6532 187.971 73.9967C191.845 74.3498 189.175 81.0328 189.101 81.2222C189.359 81.0649 200.4 74.4076 206.336 78.9945C206.382 79.0275 206.425 79.064 206.465 79.1036C209.28 81.6041 205.626 89.5775 200.144 91.9496Z" fill="url(#paint39_linear)"/>
<path style="mix-blend-mode:multiply" d="M200.144 91.9496C194.579 94.3603 185.424 90.3447 185.424 90.3447C185.424 90.3447 186.231 92.3091 185.424 94.9862C184.617 97.6632 182.283 98.3758 181.204 99.801C180.126 101.226 179.858 105.258 179.59 105.258C179.322 105.258 178.622 102.581 177.931 102.135C177.24 101.688 179.429 108.304 180.901 110.31C182.373 112.316 181.924 112.878 180.665 112.933C179.406 112.987 170.884 106.596 167.471 100.44C166.101 97.9225 165.385 95.1043 165.389 92.2417C166.906 93.4743 169.315 94.585 173.037 94.4598C181.108 94.1901 184.336 87.9983 184.336 87.9983C188.399 88.3073 192.484 88.1338 196.506 87.4815C202.42 86.5185 205.771 82.1017 206.465 79.1133C209.28 81.6042 205.626 89.5775 200.144 91.9496Z" fill="url(#paint40_linear)"/>
<path d="M178.816 101.794C177.602 98.8478 175.639 97.5061 173.65 98.5268C171.784 99.4898 172.572 103.091 174.512 105.162C176.669 107.47 178.561 107.884 179.393 107.409C180.152 106.972 179.894 104.423 178.816 101.794Z" fill="url(#paint41_linear)"/>
<path d="M235.284 240.963L209.135 243.495C209.135 243.495 203.647 162.099 202.194 149.426C201.251 141.449 199.754 133.547 197.713 125.776C197.713 125.776 210.523 124.813 215.249 124.915C215.843 125.557 216.741 135.065 217.49 144.396C217.564 145.359 217.638 146.322 217.716 147.266C218.374 155.531 218.842 162.914 218.842 162.914L231.055 220.904L235.284 240.963Z" fill="url(#paint42_linear)"/>
<path d="M273.578 146.749C273.578 146.749 252.484 179.49 246.202 179.49C246.105 179.49 246.005 179.49 245.879 179.49H245.757L245.557 179.467C245.503 179.461 245.451 179.451 245.398 179.438L245.214 179.41L245.024 179.368L244.85 179.329L244.63 179.272L244.469 179.23L244.236 179.156L244.072 179.108L243.813 179.021L243.655 178.967L243.371 178.861L243.229 178.806C243.126 178.771 243.026 178.729 242.926 178.691L242.78 178.63L242.457 178.498L242.312 178.437L241.989 178.286L241.851 178.225L241.492 178.061L241.363 177.997L240.995 177.817L240.866 177.757L240.485 177.564L240.359 177.5L239.972 177.297C239.93 177.275 239.885 177.256 239.843 177.23L239.433 177.012L239.313 176.948C239.178 176.877 239.042 176.797 238.9 176.723C238.862 176.698 238.822 176.676 238.78 176.656L238.364 176.418L238.235 176.347L237.809 176.075L237.686 176.004L237.263 175.757C237.221 175.728 237.173 175.705 237.128 175.676L236.701 175.423L236.566 175.343L236.13 175.112L235.988 175.025L235.568 174.768L235.417 174.672L235.003 174.415L234.839 174.312C234.71 174.229 234.577 174.149 234.448 174.062L234.261 173.943L233.88 173.702L233.68 173.574L233.318 173.336C233.244 173.292 233.173 173.24 233.096 173.195L232.773 172.974L232.527 172.813C232.421 172.743 232.318 172.669 232.205 172.598L231.943 172.428L231.656 172.232C231.556 172.168 231.459 172.104 231.362 172.033L231.11 171.866L230.787 171.645L230.561 171.491L230.209 171.25L230.029 171.128L229.632 170.852L229.496 170.756L229.063 170.46L228.963 170.39L228.499 170.069C228.479 170.056 228.461 170.042 228.444 170.027C225.796 168.169 223.395 166.393 221.664 165.081C219.934 163.768 218.849 162.92 218.849 162.92C218.849 162.92 218.375 155.531 217.729 147.266C216.945 137.113 215.921 125.631 215.263 124.915C215.784 124.909 216.304 124.958 216.815 125.06C217.326 125.22 219.472 127.538 222.371 130.86C230.31 139.95 243.888 156.539 244.94 156.716C245.298 156.773 246.457 155.595 247.997 153.791C252.426 148.611 259.984 138.284 260.607 137.421L260.645 137.363H260.665C262.238 137.724 263.772 138.236 265.246 138.891C266.415 139.409 267.523 140.055 268.548 140.817C269.473 141.522 270.322 142.32 271.082 143.199C271.898 144.119 272.625 145.113 273.255 146.168C273.416 146.434 273.513 146.621 273.552 146.694C273.562 146.712 273.571 146.73 273.578 146.749Z" fill="url(#paint43_linear)"/>
<path d="M202.507 124.646C202.507 124.646 210.704 131.778 210.949 132.677C211.195 133.575 205.506 138.865 205.684 139.459C205.861 140.053 212.027 144.518 212.027 145.468C212.027 146.418 204.425 176.283 204.738 180.539C204.738 180.539 201.958 145.426 200.628 138.836C199.298 132.247 197.668 126.132 197.723 125.775C197.778 125.419 202.507 124.646 202.507 124.646Z" fill="url(#paint44_linear)"/>
<path d="M217.648 208L228.895 226.014L225.545 229.24L214.504 211.852L217.648 208Z" fill="url(#paint45_linear)"/>
<path d="M157.377 132.988L153.68 153.162L151.766 163.61L141.775 203.24C140.964 204.061 139.999 204.715 138.934 205.166C137.204 205.93 134.737 206.424 131.599 205.503C125.143 203.599 122.505 198.12 123.942 192.416C125.378 186.712 146.11 144.877 148.444 141.664C150.778 138.451 153.38 134.789 157.377 132.988Z" fill="url(#paint46_linear)"/>
<path style="mix-blend-mode:multiply" d="M153.681 153.162L151.766 163.611L141.775 203.24C140.964 204.061 139.999 204.715 138.934 205.166C138.104 205.346 137.584 205.423 137.584 205.423C137.584 205.423 137.584 192.904 138.23 187.142C138.876 181.381 153.681 153.162 153.681 153.162Z" fill="url(#paint47_linear)"/>
<path d="M173.37 128.016C173.37 128.016 167.265 161.357 165.112 185.152C164.618 190.609 164.163 196.74 163.753 202.967C163.556 205.93 163.372 208.912 163.201 211.852C162.148 229.706 161.519 245.899 161.519 245.899L133.995 251.315C133.995 251.315 137.171 234.209 141.148 213.033L142.834 204.026C148.932 171.703 156.05 134.513 156.715 133.511C157.929 131.727 173.37 128.016 173.37 128.016Z" fill="url(#paint48_linear)"/>
<path style="mix-blend-mode:multiply" d="M163.753 202.967C163.556 205.93 163.372 208.912 163.201 211.852L141.148 213.033L142.834 204.026L163.753 202.967Z" fill="url(#paint49_linear)"/>
<path d="M168.731 128.543C168.731 128.543 159.943 139.341 159.943 140.499C159.943 141.658 165.06 145.956 164.97 146.39C164.879 146.823 158.652 152.906 158.468 153.926C158.284 154.947 165.196 184.208 165.196 184.208C165.196 184.208 173.725 128.584 173.725 127.926C173.725 127.268 168.731 128.543 168.731 128.543Z" fill="url(#paint50_linear)"/>
<path d="M155.159 160.642L154.081 162.07L166.483 211.14L201.281 208.122L202.356 206.694L188.565 156.475L155.159 160.642Z" fill="url(#paint51_linear)"/>
<path d="M154.081 162.07L165.408 212.568L201.281 208.122L187.486 157.903L154.081 162.07Z" fill="url(#paint52_linear)"/>
<path d="M179.398 194.462C183.744 193.461 186.414 188.99 185.363 184.476C184.311 179.961 179.936 177.113 175.59 178.114C171.244 179.114 168.574 183.586 169.625 188.1C170.677 192.615 175.052 195.463 179.398 194.462Z" fill="url(#paint53_linear)"/>
<path style="mix-blend-mode:multiply" d="M273.578 146.749C273.578 146.749 252.484 179.49 246.202 179.49C246.105 179.49 246.005 179.49 245.879 179.49H245.757L245.557 179.467C245.503 179.461 245.45 179.451 245.398 179.439L245.214 179.41L245.024 179.368L244.85 179.329L244.63 179.272L244.469 179.23L244.236 179.156L244.072 179.108L243.813 179.021L243.655 178.967L243.371 178.861L243.229 178.806C243.126 178.771 243.026 178.729 242.925 178.691L242.78 178.63L242.457 178.498L242.312 178.437L241.989 178.286L241.85 178.225L241.492 178.061L241.363 177.997L240.995 177.818L240.866 177.757L240.485 177.564L240.359 177.5L239.972 177.298C239.93 177.275 239.884 177.256 239.843 177.23L239.433 177.012L239.313 176.948C239.177 176.877 239.042 176.797 238.9 176.723C238.861 176.698 238.822 176.676 238.78 176.656L238.364 176.418L238.235 176.347L237.809 176.075L237.686 176.004L237.263 175.757C237.221 175.728 237.173 175.705 237.128 175.677L236.701 175.423L236.566 175.343L236.13 175.112L235.988 175.025L235.568 174.768L235.417 174.672L235.003 174.415L234.839 174.312C234.71 174.229 234.577 174.149 234.448 174.062L234.261 173.943L233.88 173.702L233.68 173.574L233.318 173.337C233.244 173.292 233.173 173.24 233.095 173.195L232.773 172.974L232.527 172.813C232.421 172.743 232.317 172.669 232.204 172.598L231.943 172.428L231.656 172.232C231.556 172.168 231.459 172.104 231.362 172.033L231.11 171.866L230.787 171.645L230.561 171.491L230.209 171.25L230.029 171.128L229.632 170.852L229.496 170.756L229.063 170.46L228.963 170.39L228.498 170.069C228.479 170.056 228.461 170.042 228.444 170.027C225.796 168.169 223.395 166.394 221.664 165.081C219.934 163.768 218.849 162.92 218.849 162.92C218.849 162.92 218.375 155.531 217.729 147.266C217.729 147.266 239.016 168.056 243.681 169.494C247.878 170.778 267.176 147.905 271.079 143.212C271.894 144.132 272.622 145.126 273.252 146.181C273.413 146.447 273.51 146.633 273.549 146.707C273.56 146.72 273.569 146.734 273.578 146.749Z" fill="url(#paint54_linear)"/>
<path style="mix-blend-mode:multiply" d="M231.055 220.891C227.62 212.934 219.876 194.05 217.729 180.536C214.93 163.014 216.218 147.372 217.729 147.266C218.375 155.531 218.843 162.914 218.843 162.914L231.055 220.891Z" fill="url(#paint55_linear)"/>
<path d="M200.668 194.371C200.455 195.48 199.955 196.516 199.218 197.375C198.573 197.96 195.777 199.144 194.476 199.401C192.975 199.693 189.311 200.081 187.413 199.401C185.514 198.72 184.22 197.6 183.332 197.424C182.828 197.321 179.855 197.571 177.35 197.812C175.413 197.998 173.728 198.181 173.728 198.181L174.577 188.783C176.254 188.734 177.926 188.58 179.584 188.324C180.56 188.187 181.514 187.92 182.418 187.531C184.678 186.401 189.734 177.83 191.002 177.744C191.855 177.683 192.245 180.312 191.832 181.448C191.341 182.796 189.188 185.707 189.169 186.186C189.169 186.507 190.437 186.401 191.932 185.775C193.427 185.149 195.67 182.43 196.077 182.43C196.484 182.43 197.707 182.321 199.441 187.319C200.132 189.271 200.547 191.31 200.674 193.376C200.7 193.707 200.698 194.04 200.668 194.371Z" fill="url(#paint56_linear)"/>
<path style="mix-blend-mode:multiply" d="M200.668 194.371C200.455 195.481 199.955 196.516 199.218 197.375C198.573 197.96 195.777 199.144 194.476 199.401C192.975 199.693 189.311 200.081 187.413 199.401C185.514 198.72 184.22 197.6 183.332 197.424C182.828 197.321 179.855 197.571 177.35 197.812C177.737 194.747 178.218 191.45 178.218 191.45L179.584 188.324C180.56 188.187 181.514 187.92 182.418 187.531C182.418 187.531 182.741 193.145 184.707 194.663C186.673 196.181 192.626 197.449 196.555 196.291C198.239 195.85 199.703 194.813 200.674 193.376C200.7 193.707 200.698 194.04 200.668 194.371Z" fill="url(#paint57_linear)"/>
<path d="M181.547 192.994C181.421 194.044 181.292 195.026 181.182 195.851C180.978 197.318 180.833 198.293 180.833 198.293L173.231 199.664L172.527 199.789L172.627 197.998L172.804 194.946L173.276 186.69L181.547 186.747C181.751 188.825 181.751 190.917 181.547 192.994Z" fill="url(#paint58_linear)"/>
<path style="mix-blend-mode:multiply" d="M181.182 195.851C180.978 197.318 180.833 198.293 180.833 198.293L173.231 199.664L172.627 197.998L172.805 194.946L175.239 190.272C175.239 190.272 175.884 194.612 177.498 195.684C178.305 196.22 179.842 196.101 181.182 195.851Z" fill="url(#paint59_linear)"/>
<path d="M174.926 196.297C174.655 200.02 174.28 203.336 174.086 203.593C173.605 204.19 147.292 207.281 139.137 207.403C130.983 207.525 125.998 203.266 124.433 199.626C124.333 199.389 124.269 199.139 124.242 198.884C123.855 195.055 130.996 188.426 133.995 187.8C143.57 185.81 173.964 185.033 174.922 185.509C175.468 185.781 175.278 191.395 174.926 196.297Z" fill="url(#paint60_linear)"/>
<path style="mix-blend-mode:multiply" d="M174.926 196.297C174.654 200.02 174.28 203.336 174.086 203.593C173.605 204.19 147.292 207.281 139.137 207.403C130.983 207.525 125.998 203.266 124.433 199.626C124.333 199.389 124.268 199.139 124.242 198.884C125.676 200.457 130.105 202.967 143.805 202.967C154.532 202.914 165.13 200.642 174.926 196.297Z" fill="url(#paint61_linear)"/>
<path d="M154.081 216.272L144.406 235.371L140.467 233.227L150.091 214.189L154.081 216.272Z" fill="url(#paint62_linear)"/>
</g>
<g clip-path="url(#clip3)">
<path d="M189.742 61.4746L189.206 57.1597C188.513 51.5411 194.092 47.2532 199.339 49.3635L208.629 53.1011C213.727 55.1504 219.205 51.144 218.799 45.6679L218.599 43.0143" stroke="#FFCF2D" stroke-width="6" stroke-miterlimit="10"/>
<path d="M133.083 92.1387L178.023 62.4679L235.616 64.909L207.409 80.9337L193.716 72.9056L163.566 88.6725L133.083 92.1387Z" fill="#454B9D"/>
<path d="M134.731 84.741L177.194 58.1117L232.404 61.5116" stroke="#FFCF2D" stroke-width="6" stroke-miterlimit="10"/>
<path d="M206.856 76.3428L208.23 81.9802C207.971 80.9325 206.313 80.3124 203.669 80.1087C199.316 79.7709 192.317 80.5692 184.62 82.438C176.928 84.3221 170.347 86.848 166.644 89.1576C164.392 90.5537 163.199 91.8758 163.457 92.9236L162.084 87.2861C161.402 84.521 170.708 79.3144 183.077 76.2946C195.445 73.2748 206.19 73.5725 206.856 76.3428Z" fill="#FFCF2D"/>
<path d="M215.147 27.5321C215.164 26.136 215.228 24.8011 215.353 23.5479C216.319 23.2491 217.356 23.0882 218.425 23.096C219.494 23.1038 220.527 23.2856 221.479 23.6056C221.569 24.8634 221.618 26.2031 221.606 27.589C221.535 34.5389 220.034 40.1523 218.254 40.1359C216.459 40.1246 215.076 34.4821 215.147 27.5321Z" fill="#FFCF2D"/>
<path d="M219.691 42.1272C220.031 41.4429 219.752 40.6125 219.068 40.2723C218.383 39.9321 217.553 40.211 217.213 40.8953C216.872 41.5796 217.151 42.41 217.836 42.7502C218.52 43.0904 219.35 42.8115 219.691 42.1272Z" stroke="#F6B042" stroke-width="6" stroke-miterlimit="10"/>
</g>
<defs>
<linearGradient id="paint0_linear" x1="170.693" y1="415.176" x2="172.085" y2="429.606" gradientUnits="userSpaceOnUse">
<stop stop-color="#F9ECE8"/>
<stop offset="1" stop-color="#E0D9E3"/>
</linearGradient>
<linearGradient id="paint1_linear" x1="179.942" y1="131.99" x2="182.78" y2="201.961" gradientUnits="userSpaceOnUse">
<stop stop-color="#FEF2EE"/>
<stop offset="1" stop-color="#E6DFE9"/>
</linearGradient>
<linearGradient id="paint2_linear" x1="208.877" y1="248.58" x2="235.284" y2="248.58" gradientUnits="userSpaceOnUse">
<stop stop-color="#21254E"/>
<stop offset="1" stop-color="#10101A"/>
</linearGradient>
<linearGradient id="paint3_linear" x1="209.975" y1="397.657" x2="218.006" y2="397.657" gradientUnits="userSpaceOnUse">
<stop offset="0.14" stop-color="#F5ADA9"/>
<stop offset="0.93" stop-color="#E38780"/>
</linearGradient>
<linearGradient id="paint4_linear" x1="203.825" y1="411.421" x2="230.89" y2="411.421" gradientUnits="userSpaceOnUse">
<stop stop-color="#454B9D"/>
<stop offset="1" stop-color="#2B2867"/>
</linearGradient>
<linearGradient id="paint5_linear" x1="8321.79" y1="6531.37" x2="10591" y2="6531.37" gradientUnits="userSpaceOnUse">
<stop stop-color="#21254E"/>
<stop offset="1" stop-color="#10101A"/>
</linearGradient>
<linearGradient id="paint6_linear" x1="1022.48" y1="16193.7" x2="1302.85" y2="16193.7" gradientUnits="userSpaceOnUse">
<stop offset="0.14" stop-color="#F5ADA9"/>
<stop offset="0.93" stop-color="#E38780"/>
</linearGradient>
<linearGradient id="paint7_linear" x1="107" y1="25506.4" x2="6056.32" y2="25506.4" gradientUnits="userSpaceOnUse">
<stop stop-color="#454B9D"/>
<stop offset="1" stop-color="#2B2867"/>
</linearGradient>
<linearGradient id="paint8_linear" x1="107" y1="4836.64" x2="6055.09" y2="4836.64" gradientUnits="userSpaceOnUse">
<stop stop-color="#21254E"/>
<stop offset="1" stop-color="#10101A"/>
</linearGradient>
<linearGradient id="paint9_linear" x1="1625.79" y1="7404.52" x2="2610.93" y2="7404.52" gradientUnits="userSpaceOnUse">
<stop stop-color="#21254E"/>
<stop offset="1" stop-color="#10101A"/>
</linearGradient>
<linearGradient id="paint10_linear" x1="177.047" y1="397.599" x2="184.857" y2="223.388" gradientUnits="userSpaceOnUse">
<stop offset="0.14" stop-color="#F6B042"/>
<stop offset="1" stop-color="#ED794B"/>
</linearGradient>
<linearGradient id="paint11_linear" x1="180.552" y1="314.893" x2="130.326" y2="301.543" gradientUnits="userSpaceOnUse">
<stop stop-color="white"/>
<stop offset="0.43" stop-color="#F9D1AB"/>
<stop offset="0.82" stop-color="#F5AA64"/>
<stop offset="1" stop-color="#F39B49"/>
</linearGradient>
<linearGradient id="paint12_linear" x1="5882.03" y1="18474.1" x2="7900.23" y2="15918.5" gradientUnits="userSpaceOnUse">
<stop stop-color="white"/>
<stop offset="0.43" stop-color="#F9D1AB"/>
<stop offset="0.82" stop-color="#F5AA64"/>
<stop offset="1" stop-color="#F39B49"/>
</linearGradient>
<linearGradient id="paint13_linear" x1="2761.48" y1="14417.4" x2="2716.73" y2="17151.3" gradientUnits="userSpaceOnUse">
<stop offset="0.14" stop-color="#F6B042"/>
<stop offset="1" stop-color="#ED794B"/>
</linearGradient>
<linearGradient id="paint14_linear" x1="9104.92" y1="4899.3" x2="26825.4" y2="4899.3" gradientUnits="userSpaceOnUse">
<stop stop-color="#21254E"/>
<stop offset="1" stop-color="#10101A"/>
</linearGradient>
<linearGradient id="paint15_linear" x1="181.153" y1="220.695" x2="181.625" y2="230.216" gradientUnits="userSpaceOnUse">
<stop stop-color="#8286C1"/>
<stop offset="1" stop-color="#5F5BA7"/>
</linearGradient>
<linearGradient id="paint16_linear" x1="1118.15" y1="4480.46" x2="1151.67" y2="4480.46" gradientUnits="userSpaceOnUse">
<stop offset="0.14" stop-color="#F6B042"/>
<stop offset="1" stop-color="#ED794B"/>
</linearGradient>
<linearGradient id="paint17_linear" x1="694.719" y1="4428.91" x2="721.984" y2="4428.91" gradientUnits="userSpaceOnUse">
<stop offset="0.14" stop-color="#F6B042"/>
<stop offset="1" stop-color="#ED794B"/>
</linearGradient>
<linearGradient id="paint18_linear" x1="13858.9" y1="113252" x2="5280.11" y2="113191" gradientUnits="userSpaceOnUse">
<stop stop-color="white"/>
<stop offset="0.43" stop-color="#F9D1AB"/>
<stop offset="0.82" stop-color="#F5AA64"/>
<stop offset="1" stop-color="#F39B49"/>
</linearGradient>
<linearGradient id="paint19_linear" x1="4282.89" y1="14002.6" x2="5744.04" y2="26552.3" gradientUnits="userSpaceOnUse">
<stop offset="0.14" stop-color="#F6B042"/>
<stop offset="1" stop-color="#ED794B"/>
</linearGradient>
<linearGradient id="paint20_linear" x1="4824.02" y1="3274.41" x2="6426.76" y2="3274.41" gradientUnits="userSpaceOnUse">
<stop stop-color="#F9ECE8"/>
<stop offset="1" stop-color="#E0D9E3"/>
</linearGradient>
<linearGradient id="paint21_linear" x1="5910.3" y1="3639.68" x2="5693.78" y2="2678.68" gradientUnits="userSpaceOnUse">
<stop stop-color="#FEF2EE"/>
<stop offset="1" stop-color="#E6DFE9"/>
</linearGradient>
<linearGradient id="paint22_linear" x1="5857.55" y1="1318.97" x2="6195.02" y2="1318.97" gradientUnits="userSpaceOnUse">
<stop offset="0.14" stop-color="#F5ADA9"/>
<stop offset="0.93" stop-color="#E38780"/>
</linearGradient>
<linearGradient id="paint23_linear" x1="286.197" y1="121.253" x2="282.64" y2="128.677" gradientUnits="userSpaceOnUse">
<stop stop-color="white"/>
<stop offset="0.93" stop-color="#E38780"/>
</linearGradient>
<linearGradient id="paint24_linear" x1="15847.1" y1="3739.75" x2="18881.3" y2="3739.75" gradientUnits="userSpaceOnUse">
<stop offset="0.14" stop-color="#F5ADA9"/>
<stop offset="0.93" stop-color="#E38780"/>
</linearGradient>
<linearGradient id="paint25_linear" x1="13816.1" y1="2690.27" x2="13816.1" y2="3192.73" gradientUnits="userSpaceOnUse">
<stop stop-color="white"/>
<stop offset="0.93" stop-color="#E38780"/>
</linearGradient>
<linearGradient id="paint26_linear" x1="2541.87" y1="3205.87" x2="2098.39" y2="2919.39" gradientUnits="userSpaceOnUse">
<stop offset="0.14" stop-color="#F5ADA9"/>
<stop offset="0.93" stop-color="#E38780"/>
</linearGradient>
<linearGradient id="paint27_linear" x1="2322.71" y1="2238.28" x2="2104.42" y2="1627.72" gradientUnits="userSpaceOnUse">
<stop stop-color="white"/>
<stop offset="0.93" stop-color="#E38780"/>
</linearGradient>
<linearGradient id="paint28_linear" x1="2179.55" y1="1172.86" x2="2214.81" y2="1039.76" gradientUnits="userSpaceOnUse">
<stop stop-color="white"/>
<stop offset="0.93" stop-color="#E38780"/>
</linearGradient>
<linearGradient id="paint29_linear" x1="6547.45" y1="2744.2" x2="7075.53" y2="2744.2" gradientUnits="userSpaceOnUse">
<stop stop-color="#FEF2EE"/>
<stop offset="1" stop-color="#E6DFE9"/>
</linearGradient>
<linearGradient id="paint30_linear" x1="4325.28" y1="1971.64" x2="4353.24" y2="2194.99" gradientUnits="userSpaceOnUse">
<stop stop-color="#F9ECE8"/>
<stop offset="1" stop-color="#E0D9E3"/>
</linearGradient>
<linearGradient id="paint31_linear" x1="198.075" y1="78.664" x2="194.526" y2="114.721" gradientUnits="userSpaceOnUse">
<stop stop-color="#2D2F67"/>
<stop offset="1" stop-color="#080230"/>
</linearGradient>
<linearGradient id="paint32_linear" x1="7023.84" y1="1584.37" x2="5067.85" y2="2582.17" gradientUnits="userSpaceOnUse">
<stop offset="0.14" stop-color="#F5ADA9"/>
<stop offset="0.93" stop-color="#E38780"/>
</linearGradient>
<linearGradient id="paint33_linear" x1="6222.34" y1="2881.38" x2="4454.67" y2="2747.24" gradientUnits="userSpaceOnUse">
<stop stop-color="white"/>
<stop offset="0.93" stop-color="#E38780"/>
</linearGradient>
<linearGradient id="paint34_linear" x1="758.823" y1="275.157" x2="765.057" y2="397.659" gradientUnits="userSpaceOnUse">
<stop stop-color="#2D2F67"/>
<stop offset="1" stop-color="#080230"/>
</linearGradient>
<linearGradient id="paint35_linear" x1="826.936" y1="271.731" x2="833.17" y2="394.233" gradientUnits="userSpaceOnUse">
<stop stop-color="#2D2F67"/>
<stop offset="1" stop-color="#080230"/>
</linearGradient>
<linearGradient id="paint36_linear" x1="756.288" y1="406.096" x2="777.053" y2="619.33" gradientUnits="userSpaceOnUse">
<stop stop-color="#2D2F67"/>
<stop offset="1" stop-color="#080230"/>
</linearGradient>
<linearGradient id="paint37_linear" x1="1495.43" y1="222.662" x2="1496.82" y2="311.045" gradientUnits="userSpaceOnUse">
<stop stop-color="#2D2F67"/>
<stop offset="1" stop-color="#080230"/>
</linearGradient>
<linearGradient id="paint38_linear" x1="1537.85" y1="191.533" x2="1538.75" y2="259.664" gradientUnits="userSpaceOnUse">
<stop stop-color="#2D2F67"/>
<stop offset="1" stop-color="#080230"/>
</linearGradient>
<linearGradient id="paint39_linear" x1="10627.7" y1="511.37" x2="10226" y2="4892.43" gradientUnits="userSpaceOnUse">
<stop stop-color="#2D2F67"/>
<stop offset="1" stop-color="#080230"/>
</linearGradient>
<linearGradient id="paint40_linear" x1="186.444" y1="83.5911" x2="186.208" y2="110.962" gradientUnits="userSpaceOnUse">
<stop stop-color="white"/>
<stop offset="1" stop-color="#161440"/>
</linearGradient>
<linearGradient id="paint41_linear" x1="1598.41" y1="631.271" x2="1763.59" y2="872.186" gradientUnits="userSpaceOnUse">
<stop offset="0.14" stop-color="#F5ADA9"/>
<stop offset="0.93" stop-color="#E38780"/>
</linearGradient>
<linearGradient id="paint42_linear" x1="10755.7" y1="40837.2" x2="15127.4" y2="40837.2" gradientUnits="userSpaceOnUse">
<stop stop-color="#454B9D"/>
<stop offset="1" stop-color="#2B2867"/>
</linearGradient>
<linearGradient id="paint43_linear" x1="24974.7" y1="8910.41" x2="25277.6" y2="18501.7" gradientUnits="userSpaceOnUse">
<stop stop-color="#454B9D"/>
<stop offset="1" stop-color="#2B2867"/>
</linearGradient>
<linearGradient id="paint44_linear" x1="4525.77" y1="9423.15" x2="5487.07" y2="19406.5" gradientUnits="userSpaceOnUse">
<stop stop-color="#8286C1"/>
<stop offset="1" stop-color="#5F5BA7"/>
</linearGradient>
<linearGradient id="paint45_linear" x1="5007.03" y1="9777.41" x2="5648.61" y2="9777.41" gradientUnits="userSpaceOnUse">
<stop stop-color="#8286C1"/>
<stop offset="1" stop-color="#5F5BA7"/>
</linearGradient>
<linearGradient id="paint46_linear" x1="3647.55" y1="15007.5" x2="3412.7" y2="30649.6" gradientUnits="userSpaceOnUse">
<stop stop-color="#454B9D"/>
<stop offset="1" stop-color="#2B2867"/>
</linearGradient>
<linearGradient id="paint47_linear" x1="1247.89" y1="17451.3" x2="2672.49" y2="17425.5" gradientUnits="userSpaceOnUse">
<stop stop-color="white"/>
<stop offset="1" stop-color="#161440"/>
</linearGradient>
<linearGradient id="paint48_linear" x1="3426.53" y1="44557.4" x2="8229.09" y2="44557.4" gradientUnits="userSpaceOnUse">
<stop stop-color="#454B9D"/>
<stop offset="1" stop-color="#2B2867"/>
</linearGradient>
<linearGradient id="paint49_linear" x1="3289.01" y1="4603.52" x2="3312.52" y2="4147.21" gradientUnits="userSpaceOnUse">
<stop stop-color="white"/>
<stop offset="1" stop-color="#161440"/>
</linearGradient>
<linearGradient id="paint50_linear" x1="2937.22" y1="9689.96" x2="3857.96" y2="19786.5" gradientUnits="userSpaceOnUse">
<stop stop-color="#8286C1"/>
<stop offset="1" stop-color="#5F5BA7"/>
</linearGradient>
<linearGradient id="paint51_linear" x1="7194.54" y1="18856.6" x2="14413.6" y2="18856.6" gradientUnits="userSpaceOnUse">
<stop stop-color="#8286C1"/>
<stop offset="1" stop-color="#5F5BA7"/>
</linearGradient>
<linearGradient id="paint52_linear" x1="10425.8" y1="15306.5" x2="10636.6" y2="24789.1" gradientUnits="userSpaceOnUse">
<stop stop-color="#21254E"/>
<stop offset="1" stop-color="#10101A"/>
</linearGradient>
<linearGradient id="paint53_linear" x1="3640.95" y1="5592.39" x2="3789.46" y2="6710.78" gradientUnits="userSpaceOnUse">
<stop stop-color="#8286C1"/>
<stop offset="1" stop-color="#5F5BA7"/>
</linearGradient>
<linearGradient id="paint54_linear" x1="24194.1" y1="7836.73" x2="24229.3" y2="13189.5" gradientUnits="userSpaceOnUse">
<stop stop-color="white"/>
<stop offset="1" stop-color="#161440"/>
</linearGradient>
<linearGradient id="paint55_linear" x1="5276.35" y1="25395.6" x2="5971.44" y2="25395.6" gradientUnits="userSpaceOnUse">
<stop stop-color="white"/>
<stop offset="1" stop-color="#161440"/>
</linearGradient>
<linearGradient id="paint56_linear" x1="5747.15" y1="8056.87" x2="7999.17" y2="8056.87" gradientUnits="userSpaceOnUse">
<stop offset="0.14" stop-color="#F5ADA9"/>
<stop offset="0.93" stop-color="#E38780"/>
</linearGradient>
<linearGradient id="paint57_linear" x1="6227.76" y1="4553.12" x2="6126.27" y2="5272.81" gradientUnits="userSpaceOnUse">
<stop stop-color="white"/>
<stop offset="0.93" stop-color="#E38780"/>
</linearGradient>
<linearGradient id="paint58_linear" x1="2034.41" y1="5052.91" x2="2295.2" y2="5052.91" gradientUnits="userSpaceOnUse">
<stop stop-color="#FEF2EE"/>
<stop offset="1" stop-color="#E6DFE9"/>
</linearGradient>
<linearGradient id="paint59_linear" x1="2141.19" y1="3670.15" x2="1931.22" y2="3750.18" gradientUnits="userSpaceOnUse">
<stop stop-color="#F9ECE8"/>
<stop offset="1" stop-color="#E0D9E3"/>
</linearGradient>
<linearGradient id="paint60_linear" x1="6941.77" y1="4678.28" x2="6927.69" y2="9399.42" gradientUnits="userSpaceOnUse">
<stop stop-color="#454B9D"/>
<stop offset="1" stop-color="#2B2867"/>
</linearGradient>
<linearGradient id="paint61_linear" x1="6815.48" y1="4315.66" x2="6814.11" y2="5143.42" gradientUnits="userSpaceOnUse">
<stop stop-color="white"/>
<stop offset="1" stop-color="#161440"/>
</linearGradient>
<linearGradient id="paint62_linear" x1="1551.78" y1="10164" x2="2125.86" y2="10164" gradientUnits="userSpaceOnUse">
<stop stop-color="#8286C1"/>
<stop offset="1" stop-color="#5F5BA7"/>
</linearGradient>
<clipPath id="clip0">
<rect width="335" height="71" fill="white" transform="translate(0 481.5)"/>
</clipPath>
<clipPath id="clip1">
<rect width="278" height="60" fill="white" transform="translate(11.6211 422.711)"/>
</clipPath>
<clipPath id="clip2">
<rect width="192" height="352" fill="white" transform="translate(107 74)"/>
</clipPath>
<clipPath id="clip3">
<rect width="100.856" height="81.8744" fill="white" transform="translate(131.118 91.2891) rotate(-63.5654)"/>
</clipPath>
</defs>
</svg>
