<svg width="250" height="95" viewBox="0 0 250 95" fill="none" xmlns="http://www.w3.org/2000/svg">
<path fill-rule="evenodd" clip-rule="evenodd" d="M37.4446 9.53674e-06L0 54.3498L57.6437 94.0638L67.5628 79.6665L26.716 51.5249L54.2415 11.5723L37.4446 9.53674e-06Z" fill="#2E0249"/>
<path fill-rule="evenodd" clip-rule="evenodd" d="M51.5138 15.5316L26.7161 51.5248L64.8907 77.8255L71.4597 68.2908L44.4087 49.6539L62.6375 23.1954L51.5138 15.5316Z" fill="#D79DFA"/>
<path d="M99.84 46.648C100.576 46.648 101.2 46.5573 101.712 46.376C102.235 46.184 102.661 45.9227 102.992 45.592C103.323 45.2613 103.563 44.8773 103.712 44.44C103.861 43.992 103.936 43.512 103.936 43C103.936 41.976 103.6 41.176 102.928 40.6C102.267 40.024 101.237 39.736 99.84 39.736H97.664V46.648H99.84ZM111.328 59H106.432C105.525 59 104.875 58.6587 104.48 57.976L100.608 51.208C100.427 50.92 100.224 50.712 100 50.584C99.776 50.4453 99.456 50.376 99.04 50.376H97.664V59H92.256V35.688H99.84C101.525 35.688 102.96 35.864 104.144 36.216C105.339 36.5573 106.309 37.0373 107.056 37.656C107.813 38.2747 108.363 39.0053 108.704 39.848C109.045 40.6907 109.216 41.608 109.216 42.6C109.216 43.3573 109.115 44.072 108.912 44.744C108.709 45.416 108.411 46.04 108.016 46.616C107.621 47.1813 107.131 47.688 106.544 48.136C105.968 48.584 105.301 48.952 104.544 49.24C104.896 49.4213 105.227 49.6507 105.536 49.928C105.845 50.1947 106.123 50.5147 106.368 50.888L111.328 59ZM121.938 48.712C121.938 48.3173 121.884 47.9333 121.778 47.56C121.682 47.1867 121.516 46.856 121.282 46.568C121.058 46.2693 120.759 46.0293 120.386 45.848C120.012 45.6667 119.559 45.576 119.026 45.576C118.087 45.576 117.351 45.848 116.818 46.392C116.284 46.9253 115.932 47.6987 115.762 48.712H121.938ZM115.698 51.592C115.858 52.9787 116.279 53.9867 116.962 54.616C117.644 55.2347 118.524 55.544 119.602 55.544C120.178 55.544 120.674 55.4747 121.09 55.336C121.506 55.1973 121.874 55.0427 122.194 54.872C122.524 54.7013 122.823 54.5467 123.09 54.408C123.367 54.2693 123.655 54.2 123.954 54.2C124.348 54.2 124.647 54.344 124.85 54.632L126.29 56.408C125.778 56.9947 125.223 57.4747 124.626 57.848C124.039 58.2107 123.431 58.4987 122.802 58.712C122.183 58.9147 121.559 59.0533 120.93 59.128C120.311 59.2133 119.719 59.256 119.154 59.256C117.991 59.256 116.898 59.0693 115.874 58.696C114.86 58.312 113.97 57.7467 113.202 57C112.444 56.2533 111.842 55.3253 111.394 54.216C110.956 53.1067 110.738 51.816 110.738 50.344C110.738 49.2347 110.924 48.184 111.298 47.192C111.682 46.2 112.226 45.3307 112.93 44.584C113.644 43.8373 114.503 43.2453 115.506 42.808C116.519 42.3707 117.66 42.152 118.93 42.152C120.028 42.152 121.031 42.3227 121.938 42.664C122.855 43.0053 123.639 43.5013 124.29 44.152C124.951 44.8027 125.463 45.6027 125.826 46.552C126.199 47.4907 126.385 48.5573 126.385 49.752C126.385 50.1253 126.37 50.4293 126.338 50.664C126.306 50.8987 126.247 51.0853 126.162 51.224C126.076 51.3627 125.959 51.4587 125.81 51.512C125.671 51.5653 125.49 51.592 125.266 51.592H115.698ZM135.188 49.832C136.009 49.832 136.601 49.6293 136.964 49.224C137.337 48.808 137.524 48.2747 137.524 47.624C137.524 46.952 137.337 46.424 136.964 46.04C136.601 45.656 136.009 45.464 135.188 45.464C134.366 45.464 133.769 45.656 133.396 46.04C133.033 46.424 132.852 46.952 132.852 47.624C132.852 47.944 132.894 48.2373 132.98 48.504C133.076 48.7707 133.22 49.0053 133.412 49.208C133.604 49.4 133.844 49.5547 134.132 49.672C134.43 49.7787 134.782 49.832 135.188 49.832ZM139.028 59.608C139.028 59.2133 138.852 58.9307 138.5 58.76C138.148 58.5787 137.689 58.4507 137.124 58.376C136.558 58.3013 135.924 58.2587 135.22 58.248C134.526 58.2267 133.833 58.184 133.14 58.12C132.83 58.3333 132.574 58.5733 132.372 58.84C132.18 59.096 132.084 59.3893 132.084 59.72C132.084 59.9547 132.132 60.168 132.228 60.36C132.334 60.552 132.516 60.7173 132.772 60.856C133.028 60.9947 133.369 61.1013 133.796 61.176C134.233 61.2613 134.782 61.304 135.444 61.304C136.158 61.304 136.745 61.2613 137.204 61.176C137.662 61.0907 138.025 60.9733 138.292 60.824C138.569 60.6747 138.761 60.4933 138.868 60.28C138.974 60.0773 139.028 59.8533 139.028 59.608ZM143.924 42.92V44.728C143.924 45.0053 143.844 45.224 143.684 45.384C143.534 45.544 143.273 45.6667 142.9 45.752L141.7 46.024C141.764 46.2587 141.812 46.4987 141.844 46.744C141.886 46.9893 141.908 47.2453 141.908 47.512C141.908 48.344 141.732 49.0907 141.38 49.752C141.038 50.4133 140.564 50.9787 139.956 51.448C139.358 51.9067 138.649 52.264 137.828 52.52C137.006 52.7653 136.126 52.888 135.188 52.888C134.932 52.888 134.681 52.8827 134.436 52.872C134.19 52.8507 133.95 52.8187 133.716 52.776C133.353 53 133.172 53.2507 133.172 53.528C133.172 53.8053 133.321 54.008 133.62 54.136C133.918 54.2533 134.313 54.3387 134.804 54.392C135.294 54.4347 135.849 54.4667 136.468 54.488C137.097 54.4987 137.737 54.536 138.388 54.6C139.038 54.6533 139.673 54.7493 140.292 54.888C140.921 55.0267 141.481 55.2507 141.972 55.56C142.462 55.8693 142.857 56.2853 143.156 56.808C143.454 57.32 143.604 57.976 143.604 58.776C143.604 59.5227 143.422 60.2533 143.06 60.968C142.697 61.6827 142.164 62.3173 141.46 62.872C140.756 63.4267 139.892 63.8693 138.868 64.2C137.844 64.5413 136.67 64.712 135.348 64.712C134.046 64.712 132.921 64.5893 131.972 64.344C131.033 64.0987 130.249 63.7733 129.62 63.368C129.001 62.9733 128.542 62.5147 128.243 61.992C127.945 61.4693 127.796 60.9253 127.796 60.36C127.796 59.624 128.009 59.0107 128.436 58.52C128.862 58.0293 129.46 57.6347 130.228 57.336C129.822 57.0907 129.502 56.776 129.268 56.392C129.033 56.008 128.916 55.512 128.916 54.904C128.916 54.6587 128.958 54.4027 129.044 54.136C129.129 53.8587 129.262 53.592 129.444 53.336C129.636 53.0693 129.87 52.8187 130.148 52.584C130.425 52.3493 130.756 52.1413 131.14 51.96C130.276 51.5013 129.593 50.8987 129.092 50.152C128.59 49.3947 128.34 48.5147 128.34 47.512C128.34 46.68 128.516 45.9333 128.868 45.272C129.22 44.6 129.7 44.0347 130.308 43.576C130.926 43.1067 131.652 42.7493 132.484 42.504C133.316 42.248 134.217 42.12 135.188 42.12C136.596 42.12 137.844 42.3867 138.932 42.92H143.924ZM151.065 42.408V59H146.105V42.408H151.065ZM151.577 37.864C151.577 38.2587 151.497 38.632 151.337 38.984C151.177 39.3253 150.958 39.6293 150.681 39.896C150.403 40.152 150.078 40.36 149.705 40.52C149.342 40.6693 148.953 40.744 148.536 40.744C148.131 40.744 147.753 40.6693 147.401 40.52C147.049 40.36 146.734 40.152 146.457 39.896C146.19 39.6293 145.977 39.3253 145.817 38.984C145.667 38.632 145.593 38.2587 145.593 37.864C145.593 37.4587 145.667 37.08 145.817 36.728C145.977 36.376 146.19 36.0667 146.457 35.8C146.734 35.5333 147.049 35.3253 147.401 35.176C147.753 35.0267 148.131 34.952 148.536 34.952C148.953 34.952 149.342 35.0267 149.705 35.176C150.078 35.3253 150.403 35.5333 150.681 35.8C150.958 36.0667 151.177 36.376 151.337 36.728C151.497 37.08 151.577 37.4587 151.577 37.864Z" fill="#2E0249"/>
<path d="M177.98 47.336C177.98 49.0213 177.686 50.5893 177.1 52.04C176.524 53.4907 175.708 54.7547 174.652 55.832C173.596 56.8987 172.321 57.736 170.828 58.344C169.345 58.952 167.697 59.256 165.884 59.256C164.07 59.256 162.417 58.952 160.924 58.344C159.43 57.736 158.15 56.8987 157.084 55.832C156.028 54.7547 155.206 53.4907 154.62 52.04C154.044 50.5893 153.756 49.0213 153.756 47.336C153.756 45.6507 154.044 44.0827 154.62 42.632C155.206 41.1813 156.028 39.9227 157.084 38.856C158.15 37.7893 159.43 36.952 160.924 36.344C162.417 35.736 164.07 35.432 165.884 35.432C167.697 35.432 169.345 35.7413 170.828 36.36C172.321 36.968 173.596 37.8053 174.652 38.872C175.708 39.9387 176.524 41.1973 177.1 42.648C177.686 44.0987 177.98 45.6613 177.98 47.336ZM172.444 47.336C172.444 46.184 172.294 45.1493 171.996 44.232C171.697 43.304 171.265 42.52 170.7 41.88C170.145 41.24 169.462 40.7493 168.652 40.408C167.841 40.0667 166.918 39.896 165.884 39.896C164.838 39.896 163.905 40.0667 163.084 40.408C162.273 40.7493 161.585 41.24 161.02 41.88C160.465 42.52 160.038 43.304 159.74 44.232C159.441 45.1493 159.292 46.184 159.292 47.336C159.292 48.4987 159.441 49.544 159.74 50.472C160.038 51.3893 160.465 52.168 161.02 52.808C161.585 53.448 162.273 53.9387 163.084 54.28C163.905 54.6107 164.838 54.776 165.884 54.776C166.918 54.776 167.841 54.6107 168.652 54.28C169.462 53.9387 170.145 53.448 170.7 52.808C171.265 52.168 171.697 51.3893 171.996 50.472C172.294 49.544 172.444 48.4987 172.444 47.336ZM184.912 44.2C185.232 43.9013 185.563 43.624 185.904 43.368C186.246 43.112 186.608 42.8987 186.992 42.728C187.387 42.5467 187.808 42.408 188.256 42.312C188.715 42.2053 189.211 42.152 189.744 42.152C190.651 42.152 191.451 42.312 192.144 42.632C192.848 42.9413 193.44 43.3787 193.92 43.944C194.4 44.4987 194.763 45.1653 195.008 45.944C195.254 46.712 195.376 47.5493 195.376 48.456V59H190.416V48.456C190.416 47.6453 190.23 47.016 189.856 46.568C189.483 46.1093 188.934 45.88 188.208 45.88C187.664 45.88 187.152 45.9973 186.672 46.232C186.203 46.456 185.744 46.7653 185.296 47.16V59H180.336V42.408H183.408C184.027 42.408 184.432 42.6853 184.624 43.24L184.912 44.2ZM203.546 35.048V59H198.586V35.048H203.546ZM211.971 42.408V59H207.011V42.408H211.971ZM212.483 37.864C212.483 38.2587 212.403 38.632 212.243 38.984C212.083 39.3253 211.864 39.6293 211.587 39.896C211.309 40.152 210.984 40.36 210.611 40.52C210.248 40.6693 209.859 40.744 209.443 40.744C209.037 40.744 208.659 40.6693 208.307 40.52C207.955 40.36 207.64 40.152 207.363 39.896C207.096 39.6293 206.883 39.3253 206.723 38.984C206.573 38.632 206.499 38.2587 206.499 37.864C206.499 37.4587 206.573 37.08 206.723 36.728C206.883 36.376 207.096 36.0667 207.363 35.8C207.64 35.5333 207.955 35.3253 208.307 35.176C208.659 35.0267 209.037 34.952 209.443 34.952C209.859 34.952 210.248 35.0267 210.611 35.176C210.984 35.3253 211.309 35.5333 211.587 35.8C211.864 36.0667 212.083 36.376 212.243 36.728C212.403 37.08 212.483 37.4587 212.483 37.864ZM220.006 44.2C220.326 43.9013 220.657 43.624 220.998 43.368C221.339 43.112 221.702 42.8987 222.086 42.728C222.481 42.5467 222.902 42.408 223.35 42.312C223.809 42.2053 224.305 42.152 224.838 42.152C225.745 42.152 226.545 42.312 227.238 42.632C227.942 42.9413 228.534 43.3787 229.014 43.944C229.494 44.4987 229.857 45.1653 230.102 45.944C230.347 46.712 230.47 47.5493 230.47 48.456V59H225.51V48.456C225.51 47.6453 225.323 47.016 224.95 46.568C224.577 46.1093 224.027 45.88 223.302 45.88C222.758 45.88 222.246 45.9973 221.766 46.232C221.297 46.456 220.838 46.7653 220.39 47.16V59H215.43V42.408H218.502C219.121 42.408 219.526 42.6853 219.718 43.24L220.006 44.2ZM244 48.712C244 48.3173 243.947 47.9333 243.84 47.56C243.744 47.1867 243.579 46.856 243.344 46.568C243.12 46.2693 242.821 46.0293 242.448 45.848C242.075 45.6667 241.621 45.576 241.088 45.576C240.149 45.576 239.413 45.848 238.88 46.392C238.347 46.9253 237.995 47.6987 237.824 48.712H244ZM237.76 51.592C237.92 52.9787 238.341 53.9867 239.024 54.616C239.707 55.2347 240.587 55.544 241.664 55.544C242.24 55.544 242.736 55.4747 243.152 55.336C243.568 55.1973 243.936 55.0427 244.256 54.872C244.587 54.7013 244.885 54.5467 245.152 54.408C245.429 54.2693 245.717 54.2 246.016 54.2C246.411 54.2 246.709 54.344 246.912 54.632L248.352 56.408C247.84 56.9947 247.285 57.4747 246.688 57.848C246.101 58.2107 245.493 58.4987 244.864 58.712C244.245 58.9147 243.621 59.0533 242.992 59.128C242.373 59.2133 241.781 59.256 241.216 59.256C240.053 59.256 238.96 59.0693 237.936 58.696C236.923 58.312 236.032 57.7467 235.264 57C234.507 56.2533 233.904 55.3253 233.456 54.216C233.019 53.1067 232.8 51.816 232.8 50.344C232.8 49.2347 232.987 48.184 233.36 47.192C233.744 46.2 234.288 45.3307 234.992 44.584C235.707 43.8373 236.565 43.2453 237.568 42.808C238.581 42.3707 239.723 42.152 240.992 42.152C242.091 42.152 243.093 42.3227 244 42.664C244.917 43.0053 245.701 43.5013 246.352 44.152C247.013 44.8027 247.525 45.6027 247.888 46.552C248.261 47.4907 248.448 48.5573 248.448 49.752C248.448 50.1253 248.432 50.4293 248.4 50.664C248.368 50.8987 248.309 51.0853 248.224 51.224C248.139 51.3627 248.021 51.4587 247.872 51.512C247.733 51.5653 247.552 51.592 247.328 51.592H237.76Z" fill="black"/>
</svg>
