<svg width="197" height="38" viewBox="0 0 197 38" fill="none" xmlns="http://www.w3.org/2000/svg">
<path fill-rule="evenodd" clip-rule="evenodd" d="M14.7289 -1.40906e-05L0 21.3785L22.6742 37L26.5758 31.3368L10.5087 20.2673L21.3359 4.55193L14.7289 -1.40906e-05Z" fill="#2E0249"/>
<path fill-rule="evenodd" clip-rule="evenodd" d="M16.7542 5.00002L7 19.158L22.016 29.5033L24.5999 25.7529L13.9593 18.422L21.1297 8.01451L16.7542 5.00002Z" fill="#D79DFA"/>
<path d="M46.84 18.648C47.576 18.648 48.2 18.5573 48.712 18.376C49.2347 18.184 49.6613 17.9227 49.992 17.592C50.3227 17.2613 50.5627 16.8773 50.712 16.44C50.8613 15.992 50.936 15.512 50.936 15C50.936 13.976 50.6 13.176 49.928 12.6C49.2667 12.024 48.2373 11.736 46.84 11.736H44.664V18.648H46.84ZM58.328 31H53.432C52.5253 31 51.8747 30.6587 51.48 29.976L47.608 23.208C47.4267 22.92 47.224 22.712 47 22.584C46.776 22.4453 46.456 22.376 46.04 22.376H44.664V31H39.256V7.688H46.84C48.5253 7.688 49.96 7.864 51.144 8.216C52.3387 8.55733 53.3093 9.03733 54.056 9.656C54.8133 10.2747 55.3627 11.0053 55.704 11.848C56.0453 12.6907 56.216 13.608 56.216 14.6C56.216 15.3573 56.1147 16.072 55.912 16.744C55.7093 17.416 55.4107 18.04 55.016 18.616C54.6213 19.1813 54.1307 19.688 53.544 20.136C52.968 20.584 52.3013 20.952 51.544 21.24C51.896 21.4213 52.2267 21.6507 52.536 21.928C52.8453 22.1947 53.1227 22.5147 53.368 22.888L58.328 31ZM68.9375 20.712C68.9375 20.3173 68.8842 19.9333 68.7775 19.56C68.6815 19.1867 68.5162 18.856 68.2815 18.568C68.0575 18.2693 67.7588 18.0293 67.3855 17.848C67.0122 17.6667 66.5588 17.576 66.0255 17.576C65.0868 17.576 64.3508 17.848 63.8175 18.392C63.2842 18.9253 62.9322 19.6987 62.7615 20.712H68.9375ZM62.6975 23.592C62.8575 24.9787 63.2788 25.9867 63.9615 26.616C64.6442 27.2347 65.5242 27.544 66.6015 27.544C67.1775 27.544 67.6735 27.4747 68.0895 27.336C68.5055 27.1973 68.8735 27.0427 69.1935 26.872C69.5242 26.7013 69.8228 26.5467 70.0895 26.408C70.3668 26.2693 70.6548 26.2 70.9535 26.2C71.3482 26.2 71.6468 26.344 71.8495 26.632L73.2895 28.408C72.7775 28.9947 72.2228 29.4747 71.6255 29.848C71.0388 30.2107 70.4308 30.4987 69.8015 30.712C69.1828 30.9147 68.5588 31.0533 67.9295 31.128C67.3108 31.2133 66.7188 31.256 66.1535 31.256C64.9908 31.256 63.8975 31.0693 62.8735 30.696C61.8602 30.312 60.9695 29.7467 60.2015 29C59.4442 28.2533 58.8415 27.3253 58.3935 26.216C57.9562 25.1067 57.7375 23.816 57.7375 22.344C57.7375 21.2347 57.9242 20.184 58.2975 19.192C58.6815 18.2 59.2255 17.3307 59.9295 16.584C60.6442 15.8373 61.5028 15.2453 62.5055 14.808C63.5188 14.3707 64.6602 14.152 65.9295 14.152C67.0282 14.152 68.0308 14.3227 68.9375 14.664C69.8548 15.0053 70.6388 15.5013 71.2895 16.152C71.9508 16.8027 72.4628 17.6027 72.8255 18.552C73.1988 19.4907 73.3855 20.5573 73.3855 21.752C73.3855 22.1253 73.3695 22.4293 73.3375 22.664C73.3055 22.8987 73.2468 23.0853 73.1615 23.224C73.0762 23.3627 72.9588 23.4587 72.8095 23.512C72.6708 23.5653 72.4895 23.592 72.2655 23.592H62.6975ZM82.1875 21.832C83.0088 21.832 83.6008 21.6293 83.9635 21.224C84.3368 20.808 84.5235 20.2747 84.5235 19.624C84.5235 18.952 84.3368 18.424 83.9635 18.04C83.6008 17.656 83.0088 17.464 82.1875 17.464C81.3662 17.464 80.7688 17.656 80.3955 18.04C80.0328 18.424 79.8515 18.952 79.8515 19.624C79.8515 19.944 79.8942 20.2373 79.9795 20.504C80.0755 20.7707 80.2195 21.0053 80.4115 21.208C80.6035 21.4 80.8435 21.5547 81.1315 21.672C81.4302 21.7787 81.7822 21.832 82.1875 21.832ZM86.0275 31.608C86.0275 31.2133 85.8515 30.9307 85.4995 30.76C85.1475 30.5787 84.6888 30.4507 84.1235 30.376C83.5582 30.3013 82.9235 30.2587 82.2195 30.248C81.5262 30.2267 80.8328 30.184 80.1395 30.12C79.8302 30.3333 79.5742 30.5733 79.3715 30.84C79.1795 31.096 79.0835 31.3893 79.0835 31.72C79.0835 31.9547 79.1315 32.168 79.2275 32.36C79.3342 32.552 79.5155 32.7173 79.7715 32.856C80.0275 32.9947 80.3688 33.1013 80.7955 33.176C81.2328 33.2613 81.7822 33.304 82.4435 33.304C83.1582 33.304 83.7448 33.2613 84.2035 33.176C84.6622 33.0907 85.0248 32.9733 85.2915 32.824C85.5688 32.6747 85.7608 32.4933 85.8675 32.28C85.9742 32.0773 86.0275 31.8533 86.0275 31.608ZM90.9235 14.92V16.728C90.9235 17.0053 90.8435 17.224 90.6835 17.384C90.5342 17.544 90.2728 17.6667 89.8995 17.752L88.6995 18.024C88.7635 18.2587 88.8115 18.4987 88.8435 18.744C88.8862 18.9893 88.9075 19.2453 88.9075 19.512C88.9075 20.344 88.7315 21.0907 88.3795 21.752C88.0382 22.4133 87.5635 22.9787 86.9555 23.448C86.3582 23.9067 85.6488 24.264 84.8275 24.52C84.0062 24.7653 83.1262 24.888 82.1875 24.888C81.9315 24.888 81.6808 24.8827 81.4355 24.872C81.1902 24.8507 80.9502 24.8187 80.7155 24.776C80.3528 25 80.1715 25.2507 80.1715 25.528C80.1715 25.8053 80.3208 26.008 80.6195 26.136C80.9182 26.2533 81.3128 26.3387 81.8035 26.392C82.2942 26.4347 82.8488 26.4667 83.4675 26.488C84.0968 26.4987 84.7368 26.536 85.3875 26.6C86.0382 26.6533 86.6728 26.7493 87.2915 26.888C87.9208 27.0267 88.4808 27.2507 88.9715 27.56C89.4622 27.8693 89.8568 28.2853 90.1555 28.808C90.4542 29.32 90.6035 29.976 90.6035 30.776C90.6035 31.5227 90.4222 32.2533 90.0595 32.968C89.6968 33.6827 89.1635 34.3173 88.4595 34.872C87.7555 35.4267 86.8915 35.8693 85.8675 36.2C84.8435 36.5413 83.6702 36.712 82.3475 36.712C81.0462 36.712 79.9208 36.5893 78.9715 36.344C78.0328 36.0987 77.2488 35.7733 76.6195 35.368C76.0008 34.9733 75.5422 34.5147 75.2435 33.992C74.9448 33.4693 74.7955 32.9253 74.7955 32.36C74.7955 31.624 75.0088 31.0107 75.4355 30.52C75.8622 30.0293 76.4595 29.6347 77.2275 29.336C76.8222 29.0907 76.5022 28.776 76.2675 28.392C76.0328 28.008 75.9155 27.512 75.9155 26.904C75.9155 26.6587 75.9582 26.4027 76.0435 26.136C76.1288 25.8587 76.2622 25.592 76.4435 25.336C76.6355 25.0693 76.8702 24.8187 77.1475 24.584C77.4248 24.3493 77.7555 24.1413 78.1395 23.96C77.2755 23.5013 76.5928 22.8987 76.0915 22.152C75.5902 21.3947 75.3395 20.5147 75.3395 19.512C75.3395 18.68 75.5155 17.9333 75.8675 17.272C76.2195 16.6 76.6995 16.0347 77.3075 15.576C77.9262 15.1067 78.6515 14.7493 79.4835 14.504C80.3155 14.248 81.2168 14.12 82.1875 14.12C83.5955 14.12 84.8435 14.3867 85.9315 14.92H90.9235ZM98.0645 14.408V31H93.1045V14.408H98.0645ZM98.5765 9.864C98.5765 10.2587 98.4965 10.632 98.3365 10.984C98.1765 11.3253 97.9578 11.6293 97.6805 11.896C97.4032 12.152 97.0778 12.36 96.7045 12.52C96.3418 12.6693 95.9525 12.744 95.5365 12.744C95.1312 12.744 94.7525 12.6693 94.4005 12.52C94.0485 12.36 93.7338 12.152 93.4565 11.896C93.1898 11.6293 92.9765 11.3253 92.8165 10.984C92.6672 10.632 92.5925 10.2587 92.5925 9.864C92.5925 9.45867 92.6672 9.08 92.8165 8.728C92.9765 8.376 93.1898 8.06667 93.4565 7.8C93.7338 7.53333 94.0485 7.32533 94.4005 7.176C94.7525 7.02667 95.1312 6.952 95.5365 6.952C95.9525 6.952 96.3418 7.02667 96.7045 7.176C97.0778 7.32533 97.4032 7.53333 97.6805 7.8C97.9578 8.06667 98.1765 8.376 98.3365 8.728C98.4965 9.08 98.5765 9.45867 98.5765 9.864Z" fill="#2E0249"/>
<path d="M124.98 19.336C124.98 21.0213 124.686 22.5893 124.1 24.04C123.524 25.4907 122.708 26.7547 121.652 27.832C120.596 28.8987 119.321 29.736 117.828 30.344C116.345 30.952 114.697 31.256 112.884 31.256C111.07 31.256 109.417 30.952 107.924 30.344C106.43 29.736 105.15 28.8987 104.084 27.832C103.028 26.7547 102.206 25.4907 101.62 24.04C101.044 22.5893 100.756 21.0213 100.756 19.336C100.756 17.6507 101.044 16.0827 101.62 14.632C102.206 13.1813 103.028 11.9227 104.084 10.856C105.15 9.78933 106.43 8.952 107.924 8.344C109.417 7.736 111.07 7.432 112.884 7.432C114.697 7.432 116.345 7.74133 117.828 8.36C119.321 8.968 120.596 9.80533 121.652 10.872C122.708 11.9387 123.524 13.1973 124.1 14.648C124.686 16.0987 124.98 17.6613 124.98 19.336ZM119.444 19.336C119.444 18.184 119.294 17.1493 118.996 16.232C118.697 15.304 118.265 14.52 117.7 13.88C117.145 13.24 116.462 12.7493 115.652 12.408C114.841 12.0667 113.918 11.896 112.884 11.896C111.838 11.896 110.905 12.0667 110.084 12.408C109.273 12.7493 108.585 13.24 108.02 13.88C107.465 14.52 107.038 15.304 106.74 16.232C106.441 17.1493 106.292 18.184 106.292 19.336C106.292 20.4987 106.441 21.544 106.74 22.472C107.038 23.3893 107.465 24.168 108.02 24.808C108.585 25.448 109.273 25.9387 110.084 26.28C110.905 26.6107 111.838 26.776 112.884 26.776C113.918 26.776 114.841 26.6107 115.652 26.28C116.462 25.9387 117.145 25.448 117.7 24.808C118.265 24.168 118.697 23.3893 118.996 22.472C119.294 21.544 119.444 20.4987 119.444 19.336ZM131.912 16.2C132.232 15.9013 132.563 15.624 132.904 15.368C133.246 15.112 133.608 14.8987 133.992 14.728C134.387 14.5467 134.808 14.408 135.256 14.312C135.715 14.2053 136.211 14.152 136.744 14.152C137.651 14.152 138.451 14.312 139.144 14.632C139.848 14.9413 140.44 15.3787 140.92 15.944C141.4 16.4987 141.763 17.1653 142.008 17.944C142.254 18.712 142.376 19.5493 142.376 20.456V31H137.416V20.456C137.416 19.6453 137.23 19.016 136.856 18.568C136.483 18.1093 135.934 17.88 135.208 17.88C134.664 17.88 134.152 17.9973 133.672 18.232C133.203 18.456 132.744 18.7653 132.296 19.16V31H127.336V14.408H130.408C131.027 14.408 131.432 14.6853 131.624 15.24L131.912 16.2ZM150.546 7.048V31H145.586V7.048H150.546ZM158.971 14.408V31H154.011V14.408H158.971ZM159.483 9.864C159.483 10.2587 159.403 10.632 159.243 10.984C159.083 11.3253 158.864 11.6293 158.587 11.896C158.309 12.152 157.984 12.36 157.611 12.52C157.248 12.6693 156.859 12.744 156.443 12.744C156.037 12.744 155.659 12.6693 155.307 12.52C154.955 12.36 154.64 12.152 154.363 11.896C154.096 11.6293 153.883 11.3253 153.723 10.984C153.573 10.632 153.499 10.2587 153.499 9.864C153.499 9.45867 153.573 9.08 153.723 8.728C153.883 8.376 154.096 8.06667 154.363 7.8C154.64 7.53333 154.955 7.32533 155.307 7.176C155.659 7.02667 156.037 6.952 156.443 6.952C156.859 6.952 157.248 7.02667 157.611 7.176C157.984 7.32533 158.309 7.53333 158.587 7.8C158.864 8.06667 159.083 8.376 159.243 8.728C159.403 9.08 159.483 9.45867 159.483 9.864ZM167.006 16.2C167.326 15.9013 167.657 15.624 167.998 15.368C168.339 15.112 168.702 14.8987 169.086 14.728C169.481 14.5467 169.902 14.408 170.35 14.312C170.809 14.2053 171.305 14.152 171.838 14.152C172.745 14.152 173.545 14.312 174.238 14.632C174.942 14.9413 175.534 15.3787 176.014 15.944C176.494 16.4987 176.857 17.1653 177.102 17.944C177.347 18.712 177.47 19.5493 177.47 20.456V31H172.51V20.456C172.51 19.6453 172.323 19.016 171.95 18.568C171.577 18.1093 171.027 17.88 170.302 17.88C169.758 17.88 169.246 17.9973 168.766 18.232C168.297 18.456 167.838 18.7653 167.39 19.16V31H162.43V14.408H165.502C166.121 14.408 166.526 14.6853 166.718 15.24L167.006 16.2ZM191 20.712C191 20.3173 190.947 19.9333 190.84 19.56C190.744 19.1867 190.579 18.856 190.344 18.568C190.12 18.2693 189.821 18.0293 189.448 17.848C189.075 17.6667 188.621 17.576 188.088 17.576C187.149 17.576 186.413 17.848 185.88 18.392C185.347 18.9253 184.995 19.6987 184.824 20.712H191ZM184.76 23.592C184.92 24.9787 185.341 25.9867 186.024 26.616C186.707 27.2347 187.587 27.544 188.664 27.544C189.24 27.544 189.736 27.4747 190.152 27.336C190.568 27.1973 190.936 27.0427 191.256 26.872C191.587 26.7013 191.885 26.5467 192.152 26.408C192.429 26.2693 192.717 26.2 193.016 26.2C193.411 26.2 193.709 26.344 193.912 26.632L195.352 28.408C194.84 28.9947 194.285 29.4747 193.688 29.848C193.101 30.2107 192.493 30.4987 191.864 30.712C191.245 30.9147 190.621 31.0533 189.992 31.128C189.373 31.2133 188.781 31.256 188.216 31.256C187.053 31.256 185.96 31.0693 184.936 30.696C183.923 30.312 183.032 29.7467 182.264 29C181.507 28.2533 180.904 27.3253 180.456 26.216C180.019 25.1067 179.8 23.816 179.8 22.344C179.8 21.2347 179.987 20.184 180.36 19.192C180.744 18.2 181.288 17.3307 181.992 16.584C182.707 15.8373 183.565 15.2453 184.568 14.808C185.581 14.3707 186.723 14.152 187.992 14.152C189.091 14.152 190.093 14.3227 191 14.664C191.917 15.0053 192.701 15.5013 193.352 16.152C194.013 16.8027 194.525 17.6027 194.888 18.552C195.261 19.4907 195.448 20.5573 195.448 21.752C195.448 22.1253 195.432 22.4293 195.4 22.664C195.368 22.8987 195.309 23.0853 195.224 23.224C195.139 23.3627 195.021 23.4587 194.872 23.512C194.733 23.5653 194.552 23.592 194.328 23.592H184.76Z" fill="black"/>
</svg>
